<svg width="61" height="60" viewBox="0 0 61 60" fill="none" xmlns="http://www.w3.org/2000/svg">
<path d="M60.0081 30C60.0081 46.5686 46.5769 60 30.0082 60C13.4396 60 0.00818869 46.5686 0.00818869 30C0.00818869 13.4315 13.4396 5.82362e-05 30.0082 5.82362e-05C46.5769 5.82362e-05 60.0081 13.4315 60.0081 30Z" fill="#DBE5E9"/>
<path d="M50.7768 40.0363C50.7712 40.0482 50.7655 40.0587 50.76 40.0701C37.0306 40.0608 23.3003 40.0617 9.57092 40.0692C7.80379 36.293 7.12009 32.3275 7.49222 28.1822C7.63595 26.58 7.95507 25.0155 8.42878 23.5132C10.8811 15.5729 17.5828 9.4969 25.8776 7.94067C25.8778 8.30856 25.8779 8.67369 25.877 9.0368C25.8756 10.6225 25.868 12.2096 25.8741 13.7936C25.8755 14.0312 25.815 14.2263 25.6773 14.4155C25.2644 14.9799 24.8663 15.5578 24.4504 16.1191C24.3232 16.293 24.296 16.4428 24.3458 16.6593C25.0419 19.7669 25.7272 22.879 26.4065 25.9898C26.467 26.2695 26.5624 26.3921 26.8863 26.3877C27.5427 26.377 28.201 26.4361 28.8621 26.4677C28.8273 26.5783 28.8259 26.675 28.8349 26.7659C28.8864 27.3423 28.6821 27.775 28.1313 27.9989C27.8044 28.132 27.7424 28.3771 27.7259 28.6964C27.6896 29.4136 27.6184 30.1306 27.6517 30.9205C27.3596 30.6618 27.1403 30.4575 26.9104 30.2639C26.7424 30.1231 26.5609 30.0717 26.3279 30.1352C26.0101 30.2245 26.0147 30.4499 26.1811 30.5937C26.5322 30.8918 26.5276 31.2746 26.5427 31.6633C26.5548 31.9705 26.5412 32.2806 26.5351 32.5877C26.5064 34.3473 27.1782 35.7771 28.5868 36.8287C30.2146 38.0435 33.1377 37.3066 33.7369 34.8028C34.0667 33.429 33.6568 32.2443 33.0744 31.0611C32.7293 30.3607 32.1619 29.8281 31.6882 29.2259C31.0317 28.3907 30.8078 27.4345 30.8834 26.3892C30.8985 26.1547 31.0512 26.2106 31.1784 26.2106C31.9379 26.206 32.696 26.1939 33.4524 26.2167C33.6749 26.2243 33.7671 26.1985 33.8033 25.9611C34.0334 24.4934 34.3089 23.0364 34.6068 21.5839C34.9471 19.9151 35.318 18.2523 35.6779 16.588C35.7173 16.4051 35.6825 16.2976 35.5918 16.1373C35.1273 15.3097 34.6946 14.4668 34.2574 13.6241C34.2226 13.5592 34.227 13.4684 34.227 13.3897V13.3806C34.2257 11.756 34.2255 9.72252 34.2264 7.93239C34.5362 7.98962 34.8443 8.05165 35.1494 8.12158C35.1764 8.12618 35.2022 8.13226 35.228 8.1398C43.699 10.0461 50.4878 16.7835 52.3624 25.2531C53.4941 30.3609 52.969 35.2855 50.7768 40.0363ZM32.876 7.7224V13.2459L32.6597 13.2218L32.4056 13.1946H32.4039L32.2755 13.181V7.65689C32.3285 7.66131 32.3822 7.66719 32.435 7.67235C32.5828 7.6878 32.7295 7.70437 32.876 7.7224ZM33.4896 7.80688C33.5807 7.82087 33.6705 7.83835 33.7612 7.85307V13.3398L33.5343 13.3155C33.5129 13.317 33.4886 13.317 33.4585 13.314C33.4222 13.3111 33.3918 13.305 33.3661 13.2973L33.1603 13.2763V7.76087C33.2071 7.76731 33.2538 7.77283 33.3004 7.77983C33.364 7.78737 33.4275 7.79639 33.4896 7.80688ZM34.0395 14.0886C33.3723 15.0707 32.6989 16.0496 32.0288 17.0299C31.0286 18.4945 30.0271 19.9574 29.0241 21.422C28.9786 21.4886 28.9271 21.5521 28.8485 21.6581L28.4234 19.9046C28.4642 19.7336 28.561 19.5733 28.6851 19.3992C30.0149 17.5397 31.3313 15.6697 32.6295 13.789C32.64 13.7725 32.6522 13.7574 32.6627 13.7406C32.7322 13.6409 32.8018 13.5638 32.876 13.5108C32.9623 13.4456 33.0545 13.4123 33.1603 13.4064C33.2301 13.4018 33.3042 13.4094 33.3874 13.4259C33.5343 13.4563 33.6462 13.4684 33.7595 13.4835H33.7612C34.1606 13.5319 34.2664 13.7542 34.0395 14.0886ZM29.1177 29.2487C29.8395 30.4893 30.6383 31.6088 30.9 32.9932C30.9666 33.3412 30.9243 33.6892 30.8683 34.0297C30.7835 34.5591 30.2737 34.7892 29.7911 34.547C29.3205 34.3096 28.9876 33.9251 28.7758 33.4652C28.5158 32.8995 28.3234 32.3034 28.08 31.6604C28.4521 31.7769 28.5019 31.5755 28.5581 31.3381C28.7108 30.6632 28.8137 29.9733 29.1177 29.2487ZM28.965 28.1441C29.133 28.1441 29.2707 28.2803 29.2707 28.4484C29.2707 28.6178 29.133 28.7539 28.965 28.7539C28.797 28.7539 28.661 28.6178 28.661 28.4484C28.661 28.2803 28.797 28.1441 28.965 28.1441ZM29.2994 22.2951C29.2994 22.1498 29.4174 22.0317 29.564 22.0317C29.7094 22.0317 29.8274 22.1498 29.8274 22.2951C29.8274 22.4403 29.7094 22.5582 29.564 22.5582C29.4174 22.5582 29.2994 22.4403 29.2994 22.2951ZM24.8466 16.4565C24.8889 16.7031 25.0827 16.5972 25.2174 16.5593C25.467 16.4912 25.4806 16.5547 25.4731 16.8074C25.4639 17.1313 25.2914 17.4081 25.2824 17.7396C25.2581 18.6305 25.5018 19.4416 25.8756 20.2298C25.9663 20.4219 26.1025 20.6006 25.8029 20.7488C25.6637 20.8183 25.771 20.9545 25.7983 21.0499C25.8301 21.1603 25.9149 21.1906 25.9845 21.1467C26.4277 20.8638 26.6531 21.251 26.8741 21.475C27.3445 21.9502 27.8621 22.2481 28.57 22.2511C27.9846 22.3615 27.4005 22.4721 26.8165 22.584C26.6653 22.6127 26.5154 22.6536 26.3627 22.6672C26.1963 22.6825 26.1917 22.7958 26.2068 22.9048C26.225 23.0303 26.3172 23.0288 26.4308 23.0091C27.0646 22.9016 27.7001 22.8094 28.3325 22.699C28.5474 22.6628 28.6821 22.6565 28.7789 22.9169C29.089 23.7536 29.4264 24.5797 29.7578 25.4088C29.7941 25.4995 29.8289 25.5888 29.8653 25.6795C29.8984 25.7643 29.9938 25.8519 29.8984 25.9429L29.8894 25.9519C29.8335 26.0034 29.7578 26.0487 29.6715 26.0139C29.555 25.9686 29.502 25.8792 29.5051 25.7505C29.5081 25.5827 29.4991 25.4149 29.5005 25.2468C29.502 25.0002 29.3432 24.9428 29.142 24.9307C28.8998 24.917 28.9256 25.0849 28.9287 25.2439C28.9332 25.3981 28.9256 25.5525 28.9256 25.7067C28.9287 26.306 28.9287 26.3089 28.3083 26.2848C27.8181 26.2666 27.328 26.2289 26.8377 26.2151C26.6653 26.2106 26.6001 26.153 26.5624 25.9821C25.8756 22.8595 25.1826 19.7366 24.4851 16.6169C24.4517 16.4655 24.4713 16.3475 24.5608 16.2249C24.9798 15.6485 25.3958 15.069 25.8513 14.4366C25.9284 14.945 25.886 15.3959 25.8437 15.8436C25.8286 16.001 25.7121 16.0827 25.5577 16.1038C25.4201 16.1252 25.2824 16.1583 25.1447 16.1614C24.9405 16.166 24.8133 16.2583 24.8466 16.4565ZM26.7908 14.0161V14.5819C26.7908 14.9133 26.5215 15.1826 26.1903 15.1826V14.0161C26.1903 13.9344 26.2569 13.8678 26.3384 13.8678H26.6426C26.7243 13.8678 26.7908 13.9344 26.7908 14.0161ZM26.6426 13.789H26.3384C26.2569 13.789 26.1903 13.7226 26.1903 13.6409V7.88509C26.3896 7.85068 26.5896 7.81792 26.7908 7.78848V13.6409C26.7908 13.7226 26.7243 13.789 26.6426 13.789ZM27.676 13.6409C27.676 13.7226 27.6094 13.789 27.5277 13.789H27.2236C27.1419 13.789 27.0753 13.7226 27.0753 13.6409V13.5606C27.0707 13.5288 27.0707 13.4925 27.0707 13.4517C27.0722 13.2399 27.0738 13.0295 27.0753 12.8179V7.75001C27.2748 7.72369 27.4748 7.69921 27.676 7.67787V13.6409ZM27.2236 14.7059C27.1419 14.7059 27.0753 14.6409 27.0753 14.5577V14.0735C27.0738 14.0584 27.0738 14.0448 27.0753 14.0327V14.0161C27.0753 13.9344 27.1419 13.8678 27.2236 13.8678H27.5277C27.6094 13.8678 27.676 13.9344 27.676 14.0161V14.5577C27.676 14.6409 27.6094 14.7059 27.5277 14.7059H27.2236ZM27.4233 15.2113C27.9452 14.5531 28.4747 13.9026 28.9922 13.243C29.0876 13.1234 29.1814 13.0554 29.3388 13.0705C29.4008 13.0764 29.4612 13.0825 29.5234 13.0886C30.0059 13.134 30.4962 13.1734 31.0604 13.2218C30.0589 14.6258 29.1117 15.9557 28.1585 17.281C28.08 17.3916 27.9936 17.576 27.8621 17.555C27.8589 17.555 27.856 17.5533 27.8528 17.5533L27.3219 15.364C27.3386 15.3005 27.3839 15.2611 27.4233 15.2113ZM30.0808 7.55125C30.4001 7.55125 30.7194 7.55879 31.0371 7.57094C31.158 7.57701 31.282 7.58309 31.4046 7.59063C31.536 7.59763 31.667 7.60646 31.7979 7.61603C31.7867 9.40929 31.7863 11.2035 31.7806 12.9964C31.7806 13.037 31.7594 13.0764 31.7475 13.1248C31.0349 13.0538 30.3252 12.9888 29.6156 12.9132C29.5202 12.9025 29.4295 12.8979 29.3447 12.904H29.3417C29.1844 12.9176 29.0438 13.0023 28.9453 13.1265L28.8787 13.2097L28.4445 13.7542C28.375 13.8012 28.2962 13.7921 28.1994 13.7771C28.033 13.7498 28.0496 13.6469 28.0512 13.5319C28.0581 11.5671 28.0658 9.60364 28.0706 7.64014C28.7329 7.58198 29.4034 7.55125 30.0808 7.55125ZM32.6371 21.8819C31.8684 23.1453 31.0361 24.3679 30.2556 25.625C30.2207 25.6812 30.1769 25.7325 30.0983 25.8369C29.8833 25.2952 29.6837 24.7899 29.4854 24.2891C29.4658 24.2378 29.4446 24.1862 29.4249 24.1349C29.4052 24.0848 29.4052 24.041 29.4159 24.0002C29.4324 23.9381 29.4748 23.8851 29.5127 23.8277C31.3372 21.1104 33.1603 18.3931 34.985 15.6772C35.0064 15.6439 35.0426 15.6213 35.1047 15.5654C35.2272 15.8786 35.4889 16.1252 35.5252 16.452L35.2348 17.8303C35.2046 17.9059 35.1667 17.9801 35.1198 18.0511C34.2863 19.3251 33.4268 20.5824 32.6371 21.8819ZM34.2588 22.4478C34.0954 23.3858 33.9381 24.3254 33.7641 25.2619C33.6189 26.0411 33.6114 26.0397 32.8353 26.0397H31.8652C32.661 24.7899 33.4178 23.6023 34.1756 22.4162C34.2226 22.4342 34.2119 22.4298 34.2588 22.4478ZM34.0441 20.7745C34.0441 20.6279 34.162 20.5097 34.3074 20.5097C34.4526 20.5097 34.5704 20.6279 34.5704 20.7745C34.5704 20.9197 34.4526 21.0377 34.3074 21.0377C34.162 21.0377 34.0441 20.9197 34.0441 20.7745ZM30.0098 2.07243e-06C13.4094 -0.00607117 0.0285726 13.3368 4.6738e-05 29.9494C-0.0288472 46.586 13.3428 59.9909 29.9871 59.9999C46.5963 60.009 59.9378 46.648 60.0166 30.0114C59.9529 13.4081 46.6508 0.00607531 30.0098 2.07243e-06Z" fill="#003049"/>
<path d="M55.3193 19.1625C54.9946 18.7333 54.5426 18.6733 54.0831 18.8202C53.4423 19.0259 53.0917 19.4702 53.1716 20.2181C52.5585 18.8633 51.8857 17.5697 51.1024 16.325C51.3233 16.5114 51.5636 16.6219 51.8259 16.6749C52.1209 16.7349 52.401 16.643 52.6522 16.5054C53.1414 16.2381 53.3243 15.8064 53.2323 15.2136C53.5647 15.4895 54.0991 16.4759 54.1438 16.8985C54.1483 16.9406 54.1346 17.0148 54.1499 17.0198C54.5984 17.1902 54.6034 17.6692 54.8185 17.9972C55.0546 18.3581 55.2124 18.7696 55.4045 19.1583C55.3767 19.1743 55.3489 19.1743 55.3193 19.1625ZM53.4912 21.0329C53.5477 21.193 53.595 21.3853 53.6659 21.5826C53.5823 21.387 53.4955 21.2057 53.4912 21.0329ZM56.2014 22.0633C56.1272 21.9529 56.1964 21.9148 56.2571 21.8677C57.257 21.0892 57.3279 20.0385 57.1011 18.9179C56.95 18.1683 56.4714 17.5402 56.2621 16.8158C56.1381 16.3874 55.9029 16.3714 55.5723 16.4592C55.5066 16.4768 55.4492 16.519 55.3471 16.4853C55.4897 16.4253 55.6102 16.373 55.7317 16.3234C55.9568 16.2313 55.9872 16.0712 55.8337 15.9093C55.4612 15.5163 55.2604 15.0196 54.9856 14.5686C54.4863 13.7498 53.8943 13.0322 52.8848 12.8535C52.4119 12.769 51.9363 12.7337 51.5053 12.4849C51.3916 12.4192 51.2322 12.4891 51.11 12.3323C50.7955 11.9309 50.4462 11.5564 50.1066 11.1755C49.9757 11.0295 49.8519 10.8127 49.6899 10.7724C49.3307 10.683 49.4825 10.4772 49.5381 10.3086C49.7245 9.74603 49.7752 9.15674 49.5812 8.61788C49.3762 8.05123 48.9908 7.56132 48.5086 7.17171C48.1341 6.86989 47.7318 6.59586 47.3954 6.25594C47.0911 5.94897 46.7124 5.74837 46.3651 5.53157C45.5546 5.024 44.7899 4.42863 43.8497 4.13528C42.8033 3.80714 41.9256 4.10307 41.1127 4.74904C40.9642 4.8672 40.8486 5.00541 40.9406 5.21631C41.3116 5.53084 41.798 5.64034 42.1919 5.91603C42.2257 5.9348 42.2611 5.94989 42.299 5.95817C42.4339 5.97602 42.5554 5.91363 42.6836 5.89081C42.7197 5.88235 42.755 5.87388 42.7906 5.8621C43.0714 5.81591 43.3412 5.83266 43.5865 5.99627C43.6119 6.01485 43.638 6.03252 43.6642 6.05019C44.1675 6.39508 44.7358 6.63966 45.1963 7.05448C45.3743 7.21552 45.5614 7.17595 45.7133 6.95253C45.564 7.26189 45.666 7.45329 45.9299 7.595C46.3482 7.81934 46.7277 8.09761 47.1112 8.44157C46.5506 8.33962 46.1721 8.5496 45.8886 8.97289C45.6113 9.38679 45.5268 9.82204 45.7317 10.2623C44.6676 9.42139 43.5596 8.61365 42.3404 7.97283C42.2686 7.93492 42.1968 7.89774 42.1245 7.86149C41.9861 7.79413 41.8503 7.72235 41.7095 7.66328C41.2761 7.48108 40.9009 7.16748 40.4203 7.09258C40.2659 7.06884 40.1336 7.07049 40.1673 7.28968C40.3106 8.21907 40.6193 9.04283 41.4903 9.55647C42.5688 10.1921 43.6195 10.8718 44.5698 11.6939C45.3533 12.3728 46.247 12.5162 47.2496 12.3248C47.614 12.2556 47.5936 12.1341 47.4561 11.8534C47.8339 12.2471 48.296 12.506 48.5044 12.9983C48.5887 13.1966 48.7092 13.1275 48.8323 13.044C49.0315 13.0162 49.1183 12.8476 49.2245 12.7337C49.1527 12.8761 48.9724 12.963 48.9345 13.1518C48.7471 13.3349 48.914 13.4336 49.028 13.5449C49.3728 13.883 49.7693 14.1782 49.9312 14.663C50.1891 14.9699 50.3908 15.3172 50.6149 15.631C50.3552 15.3233 50.2052 14.9118 49.8578 14.6545C49.6655 14.4944 49.5845 14.6022 49.5044 14.7837C49.1273 15.6404 49.1765 16.4835 49.6471 17.2745C50.27 18.3209 50.8923 19.3716 51.3511 20.4982C51.739 21.4517 52.369 22.0843 53.3285 22.4082C53.7966 22.5657 53.7989 22.5598 53.815 22.0784C53.8041 21.9713 53.7754 21.8684 53.7401 21.7698C53.7839 21.8693 53.8369 21.968 53.9018 22.0624C54.1236 22.5641 54.2855 23.086 54.3049 23.6359C54.3124 23.8466 54.4096 23.8542 54.5596 23.844C54.6634 23.9022 54.7585 23.8509 54.8564 23.8231C55.069 23.7598 55.2806 23.6889 55.5074 23.699C55.708 23.7025 55.9021 23.662 56.0961 23.6122C56.3768 23.7336 56.1703 24.0178 56.2906 24.1941C56.2991 24.211 56.3076 24.2278 56.316 24.2447C56.5152 24.3139 56.4003 24.511 56.4704 24.6426C56.5691 24.8307 56.7007 24.7565 56.8203 24.7615C56.9147 24.7657 56.9848 24.7228 56.9535 24.587C56.752 23.7303 56.7176 22.8239 56.2014 22.0633Z" fill="#DBE5E9"/>
<path d="M13.2341 8.58274C13.2972 8.50342 13.2644 8.446 13.1564 8.28497C13.2821 8.38968 13.3993 8.42079 13.5013 8.39539C13.4095 8.4587 13.3158 8.52035 13.2341 8.58274ZM9.55258 14.7071C9.6435 14.492 9.67644 14.2585 9.59123 13.9828C9.32051 13.1101 8.62153 12.7854 7.79521 13.1353C8.44191 12.5568 9.00691 11.8932 9.65454 11.3122C10.0044 10.9977 10.3544 10.6747 10.6883 10.334C10.5425 10.69 10.6393 11.1074 10.8629 11.4193C11.3317 12.078 11.927 12.2061 12.3133 12.0003C11.4228 12.6454 10.4395 13.5957 9.55258 14.7071ZM2.3234 23.3072C2.10347 23.201 1.86478 23.2204 1.66823 23.1158C1.87398 23.1968 2.08986 23.2331 2.30904 23.2599C2.29911 23.2043 2.35285 23.3166 2.3234 23.3072ZM17.8575 4.98039C17.8153 4.99143 17.7748 5.00652 17.7378 5.02861C17.5413 5.20215 17.263 5.35141 17.2901 5.64145C17.3204 5.95524 17.1425 6.02094 16.9266 6.09694C16.763 6.15418 16.6043 6.21914 16.4788 6.34466C16.3169 6.49649 16.1356 6.61703 15.9249 6.68881C15.8903 6.70408 15.8573 6.72175 15.8261 6.74273C15.6709 6.84911 15.4964 6.92751 15.3152 7.16528C15.5682 6.71752 15.5496 6.64501 15.241 6.56734C14.5731 6.86162 14.0343 7.35079 13.4356 7.7496C13.2433 7.87861 13.057 7.98223 13.127 8.2546C12.9853 8.26067 12.8791 8.18135 12.7686 8.10719C12.169 7.7023 10.9378 7.75807 10.2937 8.10369C9.42946 8.56673 8.90238 9.4006 8.12058 9.94867C7.89219 10.1097 7.72178 10.3679 8.01955 10.6848C7.79263 10.5727 7.55154 10.367 7.42511 10.6933C7.18034 11.3242 6.6619 11.7473 6.2942 12.2828C5.57995 13.3259 5.30923 14.4011 5.98317 15.5681C6.06488 15.7105 6.00157 15.8092 5.94176 15.9264C5.60608 16.5858 5.22917 17.225 4.9544 17.9157C4.87416 18.1163 4.75877 18.306 4.84545 18.5303C3.47198 18.5454 2.50891 19.1485 1.9971 20.3888C1.75012 20.9874 1.63197 21.6402 1.37984 22.2356C1.21715 22.6174 1.212 22.8738 1.5797 23.0763C1.42622 23.061 1.27365 23.0459 1.1336 23.0325C1.06458 23.5054 1.0182 23.9836 0.922689 24.4516C0.784661 25.1312 0.616635 25.8041 0.76773 26.504C0.985262 27.509 1.59995 28.1719 2.52842 28.569C2.88582 28.6162 2.84625 28.3211 2.87993 28.1281C2.9298 27.8414 2.84956 27.536 2.91876 27.2545C3.01833 26.8488 2.85729 26.5833 2.55363 26.3589C2.4618 26.1845 2.4272 25.9988 2.44652 25.8024C2.50983 25.1539 2.63718 24.5156 2.8538 23.9035C2.94655 23.6394 3.03765 23.4397 2.62872 23.33C3.20034 23.19 3.20126 23.19 3.20384 22.593C3.20549 22.1106 3.42394 21.6916 3.56731 21.2447C3.62712 21.5988 3.69117 21.9691 4.01066 22.1343C4.80938 22.5475 5.60369 22.6276 5.99826 21.4943C6.1466 21.4159 6.2031 21.2734 6.24874 21.1275C6.34904 20.8087 6.49498 20.5102 6.63319 20.2084C6.68969 20.0742 6.87189 19.9478 6.65675 19.7976C6.74969 19.4249 6.92066 19.0709 7.15015 18.7858C7.39124 18.4849 7.49154 18.2841 7.14334 18.1028C7.4402 18.2064 7.60031 18.0564 7.72509 17.7655C7.91575 17.3203 8.09703 16.8624 8.44707 16.4973C8.53559 16.591 8.50265 16.6491 8.44946 16.7014C8.25143 16.8979 8.3602 17.0049 8.56927 17.0159C9.49516 17.0648 10.3375 16.7873 10.911 16.0639C11.674 15.1008 12.4052 14.1092 13.3167 13.2864C14.1287 12.5535 14.4964 11.7009 14.4147 10.6175C14.3968 10.3745 14.3337 10.2547 14.0781 10.2313C14.4255 9.84082 14.8227 9.58611 15.2292 9.37778C15.4906 9.2438 15.294 9.14682 15.2714 9.02535C15.4771 8.99756 15.6617 9.21933 15.8524 8.97566C16.1078 8.64936 16.489 8.46882 16.8414 8.26141C17.0017 8.22939 17.1517 8.1797 17.295 8.09026C17.6315 7.87861 17.9883 7.70157 18.365 7.56998C18.4039 7.55305 18.441 7.53207 18.4747 7.50667C18.9022 7.26558 19.3281 7.03112 19.3888 6.46023C19.4925 5.48042 18.8872 4.88929 17.8575 4.98039Z" fill="#DBE5E9"/>
<path d="M38.9861 55.4981C38.5483 55.5789 38.1256 55.7039 37.7325 55.9181C37.6785 56.0641 37.5517 56.0885 37.4207 56.1062C37 56.0887 36.6163 56.2579 36.2215 56.3611C36.0309 56.4108 36.28 56.5 36.2383 56.5792C36.2454 56.6458 36.2177 56.6988 36.175 56.7467C35.9788 56.8817 35.8393 57.151 35.5306 57.022C34.9298 57.0084 34.577 56.7654 34.4494 56.2779C34.2992 55.7039 34.4873 55.1707 34.9483 54.8715C35.0273 54.8202 35.114 54.7804 35.197 54.7353C35.8461 54.4596 36.5143 54.2605 37.2236 54.2237C37.6476 54.1414 38.0595 54.0063 38.4331 53.8002C38.6659 53.6719 38.7754 53.7426 38.8976 53.9139C38.934 53.9566 38.8919 53.8998 38.9313 53.9393C38.981 53.9896 39.011 54.0523 39.0507 54.1087C39.031 54.0395 38.9839 53.978 38.9937 53.9007C38.9042 53.6521 38.8608 53.4678 39.253 53.4686C39.6049 53.4693 39.8962 53.2157 40.2293 53.1136C40.2702 53.1012 40.3103 53.058 40.2976 52.9912C40.1101 52.0182 40.4882 51.0163 41.3898 50.4765C42.6853 49.7008 43.8946 48.8124 45.1115 47.9257C45.8113 47.4158 46.6463 47.5271 47.4473 47.6902C47.5847 47.7181 47.6238 47.8481 47.4872 47.973C47.3652 48.0849 47.259 48.2143 47.1458 48.336C47.0943 48.5459 46.9064 48.6606 46.7994 48.8321C46.775 48.861 46.7461 48.8844 46.7142 48.9043C46.5138 48.9753 46.3763 49.1266 46.2385 49.2779C45.0914 50.3009 43.8475 51.1828 42.5971 51.8662C43.1678 51.7342 43.6553 52.0393 43.9408 52.6548C44.1383 53.0808 44.1541 53.5236 43.7886 53.8996C43.5396 54.1 43.2538 54.1942 42.9358 54.1937C42.8662 54.1935 42.7644 54.2204 42.7333 54.1733C42.4788 53.789 42.2545 54.0761 42.0857 54.1622C42.2565 54.0393 42.4263 53.9526 42.7512 54.1537C43.0558 54.3428 43.4822 54.1578 43.7904 53.8983C44.2522 53.4991 44.8321 53.2634 45.2668 52.8237C45.3675 52.7221 45.5213 52.7057 45.6229 52.8653C45.7346 53.0009 45.8824 53.1071 45.9613 53.27C45.8898 53.1049 45.7399 53.0039 45.6282 52.8717C45.5038 52.6426 45.6566 52.5158 45.8246 52.4457C46.3644 52.2199 46.7628 51.8005 47.2216 51.4646C47.2505 51.4396 47.282 51.4175 47.3138 51.3963C47.5021 51.2986 47.6284 51.148 47.6941 50.9463C47.718 50.895 47.7447 50.8451 47.7684 50.7936C47.8391 50.6283 47.7872 50.4402 47.8632 50.2759C48.1359 49.9047 48.4906 49.6121 48.8106 49.2865C48.9584 49.1365 49.1364 49.0931 49.334 49.1952C49.7764 50.2122 49.7803 51.2058 49.1259 52.1374C48.59 52.9001 47.8698 53.4682 47.1305 54.0292C46.7742 54.2993 46.6301 54.264 46.4303 53.847C46.3946 54.1166 46.6195 54.328 46.4143 54.5075C46.2547 54.647 46.069 54.7388 45.8647 54.8062C45.3853 54.9639 44.9874 55.2786 44.5604 55.5318C43.4577 56.1855 42.1172 56.1931 41.1416 55.2508C41.0751 55.1868 41.0107 55.1505 40.9204 55.1625C40.9067 55.147 40.8929 55.1317 40.8791 55.1165C40.8144 54.9643 40.856 54.8395 40.9772 54.7355C41.0523 54.6777 41.1108 54.5938 41.2146 54.5791C41.1388 54.5815 41.086 54.6289 41.0324 54.6749C40.8409 54.866 40.567 54.9173 40.3554 55.0754C40.2199 55.113 40.0913 55.1643 39.9652 55.228C39.5066 55.4599 39.4582 55.4332 39.3526 54.9164C39.3391 54.8619 39.2732 54.9438 39.3209 54.9144C39.34 54.9026 39.3522 54.9094 39.3577 54.9348C39.4525 55.391 39.4236 55.435 38.9861 55.4981Z" fill="#DBE5E9"/>
<path d="M35.5216 5.32328C35.1222 5.17384 34.666 5.11789 34.5123 4.60664C34.3653 4.11691 34.415 3.66528 34.7065 3.24697C34.905 2.96244 35.2122 2.94073 35.5602 2.95379C35.4248 2.78448 35.2816 2.7081 35.0999 2.70829C34.5616 2.70884 34.0487 2.48523 33.5034 2.53603C33.2916 2.5559 33.2756 2.40021 33.2583 2.22979C33.2257 1.90883 33.3404 1.59431 33.3345 1.27592L33.2148 1.26212C33.1747 1.57167 33.1081 1.88067 33.1022 2.19096C33.096 2.50658 33.0174 2.56768 32.7095 2.45542C31.9455 2.17642 31.1591 2.30764 30.3781 2.35144C30.6448 2.5375 30.9626 2.33267 31.237 2.55995C31.5567 2.8246 31.7626 3.31524 31.6492 3.75693C31.5202 4.25917 31.1126 4.63295 30.6608 4.64216C30.1985 4.65191 29.7358 4.6451 29.2733 4.64418C28.5589 4.64271 27.8457 4.64731 27.1585 4.88693C27.0179 4.93606 26.9195 4.86024 26.8519 4.73896C26.5115 4.39757 26.6252 3.9395 26.5411 3.53259C26.6112 2.98287 26.6188 3.01839 27.1657 3.02244C27.8345 3.02723 28.5037 2.95379 29.1743 2.94018C29.3966 2.93557 29.6213 2.93631 29.8433 2.90263C29.0495 3.02207 28.2473 2.90134 27.4482 3.02575C27.0726 3.08428 26.669 2.95932 26.3011 3.15495C26.2582 3.17077 26.2141 3.18126 26.1692 3.18844C25.9347 3.20188 25.7138 3.30402 25.4783 3.30163C25.2983 3.29979 25.1496 3.23059 25.1172 3.03238C25.0872 2.84926 25.1864 2.75135 25.3616 2.72099C26.1011 2.50603 26.8867 2.62234 27.6249 2.40886C27.8312 2.34905 27.8564 2.54744 27.9994 2.62013C28.3252 1.58363 29.009 0.896622 30.0645 0.647067C30.4537 0.554864 30.8566 0.509039 31.2869 0.561306C31.6632 0.607131 32.0799 0.523577 32.4802 0.518608C32.7827 0.51456 33.0792 0.540141 33.3367 0.720498C33.4018 0.765955 33.4499 0.783623 33.5189 0.730068C33.7957 0.515296 34.1006 0.590199 34.3813 0.692156C35.2361 1.00336 36.1917 1.03097 36.9519 1.61087C37.5948 2.10096 38.0714 2.69117 38.1419 3.52965C38.1541 3.67228 38.1912 3.70448 38.3329 3.72381C39.1766 3.83865 39.9096 4.2831 40.7067 4.53854C40.8386 4.58069 40.8911 4.66001 40.8552 4.7846C40.8241 4.89337 40.7637 4.9887 40.629 4.99661C40.4784 5.00545 40.3329 4.9898 40.1954 4.90294C40.3855 5.14476 40.6816 5.17586 40.9214 5.31003C41.4299 5.3818 41.8155 5.73074 42.2763 5.91054L42.2684 5.90502C42.448 6.05814 42.5721 5.93189 42.6987 5.81963L42.6882 5.82644C43.0261 5.70865 43.3325 5.79975 43.6277 5.96759C44.1419 6.42971 44.2142 6.93563 43.8498 7.51958C43.4391 8.17789 43.0241 8.29659 42.2489 7.9771C41.6524 7.6359 41.0109 7.37585 40.4374 6.99103C40.0296 6.7527 39.6043 6.55983 39.1304 6.49707C38.9347 6.4713 38.8569 6.37119 38.9333 6.18402C38.9642 6.10838 39.0422 6.03256 38.9128 5.99336C38.8065 5.96115 38.8179 6.07599 38.8041 6.12844C38.7413 6.36622 38.6003 6.34432 38.4485 6.23537C38.0556 5.95342 37.6016 5.84208 37.1404 5.7473C36.6801 5.84318 36.3028 5.54357 35.8753 5.48321C35.7518 5.44217 35.6197 5.42008 35.5216 5.32328Z" fill="#DBE5E9"/>
<path d="M56.4174 35.0401C56.4135 35.0955 56.4095 35.1509 56.4056 35.2063C56.4443 35.5438 56.3276 35.8701 56.3339 36.206C56.3357 36.3041 56.2869 36.3954 56.1756 36.4322C56.1647 36.4357 56.021 36.3764 56.1296 36.4872C56.3265 36.688 56.1969 36.879 56.1075 37.0642C55.9371 37.4186 55.8307 37.7959 55.6989 38.1644C55.624 38.3697 55.4985 38.5604 55.5164 38.7927C55.3524 38.9728 55.3513 39.2222 55.2285 39.4493C55.3594 39.2452 55.3441 39.0107 55.4849 38.8398C55.5488 38.6206 55.578 38.39 55.6991 38.1898C55.7407 37.9575 55.8331 37.7913 56.1145 37.8717C56.1307 37.8813 56.1467 37.8912 56.1629 37.9012C56.159 38.2172 56.4842 38.2764 56.6349 38.4746C57.3093 39.3619 57.3783 40.3084 57.0205 41.3077C56.77 42.008 56.4393 42.6794 56.1828 43.3776C56.1049 43.5894 55.9996 43.6279 55.8198 43.622C55.8014 43.6154 55.7832 43.6087 55.7646 43.6027C55.3612 43.3325 54.9337 43.1065 54.4881 42.9133C54.4565 42.8862 54.4339 42.8531 54.4175 42.8152C54.3661 42.6376 54.4274 42.4808 54.5198 42.337C54.824 41.8648 55.006 41.3278 55.313 40.8565C55.452 40.6432 55.4755 40.3903 55.4724 40.2629C55.3861 41.0111 55.0029 41.4281 54.3772 41.3478C53.5094 41.2365 53.0355 40.6605 53.1583 39.9024C52.5773 41.2494 51.9433 42.601 51.0592 43.8185C51.0398 43.8524 51.0177 43.8846 50.9944 43.9157C50.8528 44.0893 50.7314 44.2757 50.6524 44.4875C50.4248 44.7194 50.3832 45.1112 50.019 45.2264C49.6584 45.4856 49.564 45.421 49.4221 44.9877C49.0828 43.9516 49.3712 43.087 49.9454 42.1985C50.6171 41.1588 51.0969 40.0038 51.64 38.8878C52.0311 38.0845 52.792 37.6824 53.6504 37.4856C53.8319 37.4442 53.8227 37.5913 53.8039 37.6958C53.7614 37.9325 53.7003 38.1658 53.6467 38.4007C53.6454 38.6337 53.4809 38.8214 53.4645 39.0431C53.5275 38.8251 53.5922 38.6011 53.7141 38.3985C54.006 37.8462 54.2023 37.2449 54.2886 36.6431C54.3882 35.9478 54.6551 35.3051 54.7747 34.6227C54.8433 34.2311 54.9335 33.8413 54.9066 33.4388C54.7872 33.1226 54.9738 32.8236 54.9569 32.5129C55.0095 31.7218 55.4326 31.2718 56.1633 31.2298C56.8937 31.188 57.3577 31.5605 57.5076 32.3083C57.5078 32.353 57.5018 32.3974 57.4916 32.4408C57.4256 32.747 57.2982 33.0108 56.9914 33.1469C56.8843 33.1571 56.8079 33.1284 56.8078 33.0906C56.8297 33.1998 56.7776 33.3893 56.736 33.5811C56.7014 33.9216 56.6405 34.258 56.607 34.5981C56.5908 34.7646 56.5481 34.9216 56.4174 35.0401Z" fill="#DBE5E9"/>
<path d="M3.63922 38.4921C3.62229 38.1995 3.78884 38.0315 4.01686 37.8794C4.86638 37.3132 5.65461 37.5715 6.00244 38.5182C6.04036 38.6211 6.00336 38.7768 6.14047 38.8423C6.40199 39.2231 6.59284 39.6333 6.66682 40.093C6.82344 40.5202 6.94012 40.9639 7.24691 41.3241C7.33064 41.4224 7.48119 41.5335 7.36064 41.71C7.34077 41.7389 7.34095 41.8197 7.34316 41.8201C7.8627 41.9253 7.77454 42.4611 7.97698 42.7765C8.43082 43.4836 8.87564 44.1956 9.3742 44.8727C9.65044 45.2481 9.68761 45.8488 9.44855 46.1773C9.05452 46.7191 8.53241 46.9205 8.03698 46.7475C7.80288 46.6656 7.7208 46.4094 7.49665 46.3277C7.40279 46.0645 7.30396 45.8052 7.47732 45.5306C7.55591 45.406 7.4764 45.2855 7.40426 45.1844C7.25151 44.9711 7.13556 44.7345 6.98318 44.5392C7.08845 44.7111 7.19666 44.9016 7.32439 45.0735C7.47383 45.2744 7.51818 45.453 7.40794 45.6871C7.30396 45.9075 7.42137 46.1179 7.50162 46.3233C7.78761 46.9724 8.26187 47.4928 8.77589 47.9452C9.0836 48.2159 9.06833 48.3495 8.81914 48.5842C8.75436 48.6451 8.65295 48.6942 8.68903 48.8219C9.22016 48.4231 9.18022 48.4581 9.63627 48.9793C10.0509 49.4532 10.4593 49.9551 11.025 50.2764C11.1277 50.1947 11.2275 50.244 11.3279 50.2817C11.682 50.3776 12.0897 50.3068 12.3764 50.6145C12.5838 50.7435 12.7817 50.8848 12.9526 51.0613C13.0818 51.2393 13.2868 51.3876 13.188 51.6558C13.1748 51.6714 13.1613 51.687 13.1479 51.7027C12.6974 51.8897 12.2608 52.1159 11.7558 52.1339C10.8697 52.1656 10.1021 51.8807 9.46327 51.2713C8.96858 50.7996 8.5002 50.3009 8.00477 49.8301C7.78209 49.6185 7.9341 49.5108 8.1128 49.3557C7.53621 49.622 7.39469 49.1068 7.14256 48.8542C6.86871 48.5798 6.57241 48.2743 6.38359 47.9728C5.86736 47.1487 5.41886 46.2544 5.70688 45.2016C5.82632 44.7656 5.93417 44.337 6.30169 44.0333C6.28457 43.8866 6.58124 43.8861 6.45573 43.7064C6.478 43.638 6.37604 43.6777 6.43199 43.6796C6.43898 43.6796 6.4342 43.6875 6.43659 43.6987C6.47377 43.8745 6.29378 43.9155 6.23268 44.0296C5.92552 44.0716 5.87399 43.7797 5.78307 43.6207C5.45659 43.0485 5.18716 42.4441 4.88386 41.8583C4.72633 41.5539 4.87098 41.4969 5.13416 41.51C5.36825 41.4737 5.35206 41.7133 5.46045 41.8085C5.40414 41.6909 5.31322 41.5834 5.31654 41.4382C5.31341 41.4106 5.31046 41.383 5.30733 41.3555C4.87061 40.6893 4.66284 39.9079 4.24415 39.211C4.24893 39.1791 4.18066 39.2581 4.23384 39.24C4.26513 39.2294 4.26237 39.2398 4.25795 39.2752C4.23127 39.4911 4.14293 39.5135 3.99386 39.365C3.92503 39.0542 3.85013 38.7455 3.63922 38.4921Z" fill="#DBE5E9"/>
<path d="M24.7639 5.31159C24.9331 5.41042 25.144 5.08743 25.2424 5.29834C25.349 5.52692 25.1662 5.76966 25.0575 5.9848C24.5891 6.91143 23.7539 7.33858 22.8047 7.58685C21.9128 7.82003 21.0708 8.18129 20.2318 8.54973C19.644 8.80775 19.0705 9.10019 18.3986 9.02271C17.9244 8.96787 17.4711 8.86076 17.0461 8.62022C16.8993 8.53704 16.9416 8.45587 16.9361 8.35613C17.3428 7.9564 17.8631 7.74659 18.3636 7.50422L18.3532 7.51268C19.8264 6.63372 21.3951 6.00155 22.6733 5.71592C22.2367 5.75181 21.7411 5.39919 21.57 4.60838C21.4542 4.07357 21.6568 3.44177 22.3065 3.29749C22.6103 3.32951 23.0345 3.07664 23.1164 3.64311C23.1256 3.70678 23.2073 3.66354 23.2552 3.65084C24.2201 3.3919 25.2192 3.32307 26.1954 3.12651L26.1852 3.1324C26.5809 3.05437 26.5809 3.05437 26.5888 3.58716C26.6036 3.97198 26.7283 4.34613 26.7033 4.73519C26.7046 4.85849 26.6431 4.99155 26.5312 4.96983C25.9204 4.85168 25.356 5.10253 24.7689 5.16234C24.4111 5.39588 23.9549 5.30037 23.645 5.4914C23.5395 5.5363 23.6354 5.59851 23.6004 5.55471C23.592 5.54422 23.598 5.53446 23.6185 5.52489C23.9819 5.35558 24.3616 5.27331 24.7639 5.31159Z" fill="#DBE5E9"/>
<path d="M12.884 51.075C12.7172 50.9657 12.5505 50.8564 12.3837 50.7471C12.344 50.653 12.2505 50.6102 12.1844 50.5413C12.0096 50.3588 11.8349 50.1836 11.5541 50.393C11.4943 50.4379 11.3658 50.4309 11.2803 50.3628C11.1952 50.3339 11.11 50.3053 11.025 50.2764C11.0451 50.0364 10.7751 50.0422 10.6871 49.8676C10.3836 49.2647 10.7145 48.5287 11.4201 48.2547C11.945 48.0508 12.3311 48.2907 12.7146 48.5867C12.7754 48.5935 12.8251 48.6231 12.8709 48.6612C13.1654 48.9052 13.4396 49.1747 13.7692 49.3749C13.8665 49.4629 14.0171 49.5159 13.9823 49.6924C14.3022 50.0424 14.6824 50.3133 15.0992 50.5332C15.4205 50.7027 15.4229 50.6983 15.3072 51.1385C15.5201 50.8209 15.6905 50.7959 15.8832 51.0406C16.1322 51.3574 16.4898 51.5338 16.8376 51.7181C17.143 51.7345 17.3581 51.9511 17.6165 52.0714C17.7549 52.1357 17.8953 52.1888 18.0444 52.2214C18.2823 52.3101 18.4973 52.4415 18.7086 52.5807C19.4107 53.1155 19.5658 53.6155 19.259 54.3515C19.0047 54.9617 18.5584 55.1767 17.9115 55.002C17.717 54.924 17.5528 54.8025 17.4161 54.6437C17.3526 54.5701 17.2607 54.4711 17.3023 54.3916C17.5057 54.0033 17.145 54.0145 16.9683 53.8952C16.9322 53.8792 16.8984 53.8595 16.866 53.8371C16.7199 53.7088 16.5603 53.5978 16.379 53.5284C15.8957 53.3429 15.5201 52.9859 15.0838 52.7262C14.9065 52.5795 14.6564 52.5413 14.5153 52.3412C14.6522 52.5547 14.9133 52.5843 15.0941 52.7336C15.2385 52.8773 15.5895 52.8819 15.4277 53.2307C15.4047 53.4696 15.2871 53.4981 15.1003 53.3797C14.4577 52.9725 13.8279 52.5486 13.2344 52.0694C13.0801 51.945 13.1562 51.8282 13.1479 51.7027L13.1354 51.7153C13.2749 51.5443 13.4291 51.5405 13.5531 51.6465C13.3198 51.5206 13.0941 51.3069 12.884 51.075Z" fill="#DBE5E9"/>
<path d="M16.926 6.20618C16.7783 6.24189 16.6419 6.29949 16.5317 6.40826C16.3202 6.51408 16.1321 6.66149 15.9126 6.75314L15.9234 6.74541C15.6129 6.91602 15.4933 6.75664 15.4558 6.46972C15.4418 6.36225 15.4768 6.24925 15.4245 6.1449C15.476 4.83142 16.119 3.62855 17.4645 3.18226C17.9909 3.00779 18.4679 2.671 19.0138 2.50169C19.2206 2.43746 19.3581 2.39679 19.4183 2.79468C19.4452 2.33293 19.6117 2.19508 19.9651 2.18625C20.1784 2.18091 20.4581 2.15459 20.5818 1.88387C20.6015 1.84099 20.6681 1.78799 20.7093 1.79112C21.3678 1.84081 21.9751 1.5366 22.6264 1.52537C23.6471 1.50752 24.4171 1.92933 24.9624 2.784C24.988 2.82431 25.0506 2.84087 25.096 2.86848C25.2284 3.19257 25.1339 3.36133 24.7705 3.38415C24.5205 3.39961 24.2811 3.49457 24.0339 3.53175C23.6863 3.5842 23.3421 3.70898 23.0192 3.38857C22.8706 3.24134 22.5964 3.27998 22.3721 3.31182C21.7653 3.59285 21.1309 3.82105 20.5032 4.03233C19.5755 4.34446 18.7033 4.79388 17.7649 5.06938L17.7754 5.06128C17.5133 5.24845 17.2724 5.44776 17.2573 5.80866C17.2485 6.02067 17.0166 6.05674 16.926 6.20618Z" fill="#DBE5E9"/>
<path d="M54.5596 23.8439C54.6374 23.8159 54.7153 23.7879 54.7931 23.7601C55.0432 23.7484 55.2792 23.6788 55.5092 23.5853C55.7253 23.6306 55.9204 23.5224 56.1274 23.5014C56.3845 23.7033 56.2327 24.0158 56.3322 24.2603L56.3162 24.2447C56.3591 24.5342 56.3262 24.8406 56.5065 25.0996C56.6492 25.6688 56.5507 26.2877 56.6957 26.5606C56.5189 26.2975 56.683 25.6646 56.4962 25.1064C56.5229 24.767 56.8014 24.8364 56.9653 24.8796C58.321 25.2374 59.0724 26.2099 59.2012 27.5482C59.2621 28.1829 59.2279 28.8254 59.36 29.4537C59.4329 29.8004 59.3422 29.9939 58.9434 29.8989C58.6073 29.9771 58.2545 29.882 57.9221 29.9994C57.5642 30.0516 57.3914 29.8932 57.3978 29.5349C57.4083 28.9642 57.347 28.3907 57.4041 28.0819C57.3089 28.4612 56.9098 28.761 56.2334 28.7516C55.5764 28.7428 55.079 28.353 54.974 27.7366C54.9203 27.4219 54.8241 27.107 54.8907 26.7804C54.8968 26.7576 54.903 26.7347 54.9095 26.7119C54.8933 25.9038 54.8171 25.1045 54.4784 24.3583C54.3838 24.1499 54.5622 24.0187 54.5596 23.8439Z" fill="#DBE5E9"/>
<path d="M25.1085 56.9326C24.4835 58.1371 23.2393 58.6585 21.8468 58.3267C21.1272 58.1552 20.4286 57.8964 19.7103 57.7173C19.4762 57.659 19.5506 57.5131 19.5044 57.3399C19.3222 57.6308 19.1413 57.5685 18.8958 57.4343C18.3188 57.1189 17.7194 56.8435 17.1226 56.566C16.1071 56.0934 15.5989 55.2555 15.4274 54.1925C15.3753 53.87 15.4536 53.5368 15.5844 53.2277C15.7077 53.1131 15.8161 53.2011 15.9225 53.2572C16.2641 53.4376 16.6146 53.6015 16.9347 53.8204L16.9231 53.8119C17.1252 53.9216 17.2435 54.0627 17.2838 54.3162C17.3368 54.6483 17.6029 54.8419 17.9108 54.963C18.4521 55.1513 18.9637 55.4139 19.5121 55.5842C19.9755 55.7281 20.0129 55.8026 19.9286 56.2798C19.9148 56.3577 19.867 56.4293 19.8824 56.5224C19.8752 56.568 19.9619 56.5115 19.9069 56.5226C19.8859 56.5268 19.8778 56.5154 19.883 56.4882C19.8935 56.4329 19.8808 56.5031 19.892 56.448C20.0383 55.7294 20.0751 55.725 20.7568 56.0518C21.2995 56.312 21.8778 56.4813 22.4713 56.5909C22.6697 56.6367 22.8655 56.6155 23.0394 56.5193C23.7097 56.1481 24.3347 56.538 24.9749 56.6323C25.1008 56.6509 25.168 56.7854 25.1085 56.9326Z" fill="#DBE5E9"/>
<path d="M36.1093 56.6891C36.143 56.6642 36.1763 56.6392 36.21 56.6144C36.2497 56.3556 36.41 56.2305 36.6605 56.1929C36.906 56.1561 37.1325 56.0411 37.3797 56.0087C37.5074 56.0179 37.6226 55.9777 37.7325 55.9181C37.9051 55.9601 38.1841 55.7017 38.1641 56.1975C38.1 57.7771 36.9967 58.5609 35.7946 58.8637C35.1495 59.0262 34.4787 59.063 33.8419 59.278C33.587 59.3641 33.4061 59.2548 33.4332 58.9356C33.4481 58.7599 33.436 58.5821 33.4019 58.4032C33.2596 58.595 33.3846 58.8134 33.3417 59.014C33.3174 59.127 33.3725 59.275 33.1822 59.305C32.0443 59.4848 30.8918 59.6129 29.7813 59.2498C28.7824 58.9231 28.1749 58.1745 27.9722 57.1251C28.0164 57.041 28.0948 57.0088 28.1802 57.0143C28.6646 57.0452 29.1527 57.0436 29.6334 57.096C30.0187 57.138 30.2558 57.4897 30.569 57.6879C31.1296 57.8737 31.6819 57.6376 32.2403 57.6406C32.3884 57.6413 32.5796 57.6203 32.753 57.5382C32.9556 57.442 33.1669 57.5353 33.1741 57.8128C33.1781 57.9707 33.2624 58.0891 33.3097 58.2374C33.3272 58.2115 33.3386 58.196 33.3485 58.1792C33.4888 57.9424 33.0695 57.6155 33.4214 57.4519C33.6579 57.3417 33.9568 57.4549 34.2376 57.3785C34.6543 57.2649 35.0939 57.2366 35.5239 57.1718C35.6913 56.9775 36.0265 56.9861 36.1093 56.6891Z" fill="#DBE5E9"/>
<path d="M12.8125 48.6837C12.78 48.6515 12.7474 48.6191 12.7146 48.5867C12.6986 48.3286 12.4735 48.2229 12.3189 48.0799C10.8128 46.686 9.54347 45.1033 8.49924 43.3378C8.44605 43.2478 8.3371 43.1243 8.39158 43.0647C8.4766 42.9719 8.6242 42.9427 8.77272 42.9581C9.80535 43.0649 10.6271 43.4397 11.2589 44.3581C11.9325 45.337 12.7522 46.2277 13.6438 47.029C14.428 47.7339 14.4538 48.6418 14.3956 49.5765C14.3752 49.9026 14.1108 49.6119 13.9823 49.6924C13.8947 49.6064 13.8071 49.5203 13.7193 49.4344C13.4263 49.1731 13.128 48.918 12.8125 48.6837Z" fill="#DBE5E9"/>
<path d="M18.6122 52.6349C18.4228 52.5248 18.2333 52.4149 18.0439 52.3051C17.6642 52.0927 17.2191 51.9872 16.9331 51.6225C16.8742 51.3967 17.0473 51.3588 17.1937 51.2875C18.1554 50.8197 19.1088 50.851 20.0505 51.338C21.1462 51.9046 22.3147 52.2775 23.489 52.6321C24.3167 52.8822 24.785 53.5046 25.1594 54.2156C25.2282 54.3464 25.3774 54.5544 25.2251 54.7121C25.0889 54.8531 24.9242 54.6376 24.7628 54.6712C24.2994 54.7675 23.8766 54.5417 23.4303 54.5032C21.7497 54.0733 20.1281 53.4901 18.6122 52.6349Z" fill="#DBE5E9"/>
<path d="M6.22628 38.8218C5.70895 37.4804 5.33131 36.0971 5.06758 34.6874C4.90397 33.8119 4.82686 32.9201 4.72601 32.0338C4.71 31.8933 4.63841 31.6922 4.77938 31.6061C4.92919 31.5142 5.09132 31.6429 5.23414 31.724C6.19242 32.2686 6.59436 33.1566 6.7357 34.1931C6.90115 35.4059 7.30732 36.5561 7.61853 37.7318C7.85152 38.6107 7.58246 39.3999 7.08206 40.1266C6.94808 40.321 6.84023 40.1883 6.72779 40.1018C6.52626 39.6884 6.31536 39.279 6.22628 38.8218Z" fill="#DBE5E9"/>
<path d="M6.5744 20.0919C6.66955 20.0127 6.74427 19.9277 6.65722 19.7974C6.9318 19.6794 7.06321 19.8003 7.20989 20.044C7.76531 20.967 7.7793 21.8947 7.42907 22.8997C7.01885 24.0768 6.80647 25.3095 6.5652 26.5324C6.39533 27.3932 5.79132 27.9361 5.05591 28.3432C4.82384 28.4716 4.67661 28.3977 4.72206 28.112C4.88494 27.0842 4.9199 26.0416 5.13008 25.0169C5.35405 23.9244 5.64207 22.8555 6.02615 21.8104C6.05376 21.7353 6.05523 21.6505 6.06867 21.5702C6.19473 21.0628 6.46232 20.604 6.5744 20.0919Z" fill="#DBE5E9"/>
<path d="M35.5216 5.32328C35.6395 5.32843 35.7664 5.2815 35.8676 5.38309C36.2592 5.62455 36.7217 5.65565 37.1415 5.81355C37.3141 5.90704 37.3577 6.00311 37.1858 6.15549C36.4407 6.81693 35.6022 7.14709 34.5915 6.95183C33.7057 6.78049 32.8116 6.66767 31.9135 6.57308C30.9643 6.47314 29.9515 6.60951 29.137 5.9133C29.0538 5.84208 28.9422 5.78521 28.8975 5.6919C28.7643 5.41401 28.3138 5.19629 28.4661 4.916C28.6145 4.64289 29.0558 4.82527 29.3644 4.82012C30.2828 4.80392 31.2055 4.76711 32.1178 4.90165C33.1539 5.0544 34.2142 5.05458 35.2242 5.38125C35.3245 5.41364 35.4386 5.42505 35.5216 5.32328Z" fill="#DBE5E9"/>
<path d="M35.1005 54.6487C34.6341 54.7361 34.1702 54.8419 33.7011 54.9073C32.0359 55.1395 30.3611 55.2098 28.6814 55.1599C28.5839 55.1572 28.4481 55.2325 28.3895 55.0896C28.3365 54.9604 28.4589 54.8975 28.5191 54.8079C29.1021 53.9398 29.8976 53.4788 30.9585 53.4758C31.894 53.4734 32.8118 53.3019 33.7358 53.172C34.4431 53.0726 35.1673 52.7813 35.8843 53.0674C36.4048 53.2752 37.0003 53.4213 37.214 54.0577C37.1348 54.1593 37.0321 54.2094 36.9057 54.246C36.312 54.4185 35.7177 54.5841 35.1005 54.6487Z" fill="#DBE5E9"/>
<path d="M54.8186 33.4407C54.7532 33.7745 54.6875 34.1082 54.6217 34.4454C53.9733 34.1897 53.3168 33.1871 53.3014 32.4596C53.2887 31.8613 53.3341 31.267 53.3811 30.6709C53.4639 29.6252 53.2301 28.5817 53.3104 27.5375C53.3776 26.6618 53.8599 26.012 54.5672 25.477C54.7797 25.9025 54.685 26.3514 54.9093 26.7119L54.8966 26.6963C55.2052 28.5359 55.242 30.3816 55.023 32.2334C54.9492 32.6348 54.9542 33.0496 54.8186 33.4407Z" fill="#DBE5E9"/>
<path d="M3.63922 38.4921C4.01686 38.6552 4.0441 38.9879 4.04649 39.3328C4.00877 39.3931 4.03435 39.4594 4.0868 39.4655C4.4926 39.5133 4.62456 39.8262 4.73516 40.1433C4.85847 40.4965 5.07637 40.8119 5.14207 41.1868C5.13839 41.4209 4.9895 41.4356 4.80215 41.4334C3.24888 41.4142 2.42586 40.6521 1.86086 39.3317C1.59659 38.7146 1.48064 38.0451 1.20275 37.43C1.11938 37.2452 1.18342 37.073 1.44476 37.0575C1.55739 37.0507 1.70186 37.1287 1.7775 36.9699C1.7913 36.9569 1.8051 36.9438 1.81854 36.9305C2.09312 36.8731 2.35206 36.754 2.63345 36.7233C2.65204 36.7264 2.67063 36.7298 2.68922 36.7329C2.89424 36.7067 3.01772 36.6972 3.0584 36.9979C3.15465 37.7088 3.38893 38.3911 3.67143 39.1554C3.73768 38.8574 3.5483 38.6861 3.63922 38.4921Z" fill="#DBE5E9"/>
<path d="M58.9423 29.9894C59.2854 30.0027 59.4254 30.0853 59.3877 30.5182C59.3194 31.2998 59.3951 32.1002 59.1888 32.865C58.8591 34.0885 57.9923 35.0919 56.594 35.114C56.4131 34.8048 56.6223 34.5044 56.6203 34.1986C56.6192 34.0383 56.6792 33.8769 56.6724 33.7112C56.7127 33.559 56.6812 33.3916 56.7676 33.2487C57.1848 33.1372 57.3756 32.8428 57.4251 32.434L57.4225 32.4375C57.4213 31.8306 57.4006 31.2241 57.4003 30.6172C57.3997 30.0816 57.4244 30.0227 57.9504 29.9451C58.2835 29.9063 58.6181 29.8319 58.9423 29.9894Z" fill="#DBE5E9"/>
<path d="M2.53814 33.6298C2.28877 34.253 2.5501 34.8465 2.662 35.4432C2.71537 35.7281 2.75015 36.0229 2.9364 36.2861C3.09449 36.5095 2.73891 36.5608 2.68922 36.7329L2.70396 36.7204C2.38668 36.7888 2.08228 36.9037 1.76721 36.9795L1.7777 36.9699C1.55465 36.9712 1.31024 37.0307 1.11406 36.9589C0.872602 36.8706 1.04376 36.5941 0.996275 36.4044C0.839107 35.7759 0.623231 35.1366 0.622679 34.5013C0.622311 33.8165 0.683779 33.0814 1.11424 32.4886C1.44754 32.0298 1.88499 31.6706 2.44244 31.491C2.47612 31.46 2.51551 31.4437 2.56115 31.4416C2.72604 31.4573 2.77481 31.5596 2.76101 31.7087C2.61489 31.9326 2.65795 32.1301 2.84769 32.307C2.91008 32.701 3.11252 33.1109 2.71905 33.4535C2.66789 33.5214 2.59151 33.5638 2.53814 33.6298Z" fill="#DBE5E9"/>
<path d="M2.53814 33.6298C2.53225 33.5573 2.53612 33.4883 2.602 33.4403C2.70709 33.4119 2.81291 33.3556 2.94523 33.4751C2.91137 32.5635 2.75678 31.6912 2.7231 30.81C2.69365 30.6862 2.67635 30.5605 2.65409 30.4353C2.64764 30.3913 2.64875 30.3479 2.65537 30.3041C2.70985 30.0223 2.89076 29.9491 3.14731 30.0126C3.25662 30.0396 3.3665 30.0406 3.4771 30.0433C3.69666 30.0512 3.91658 30.0301 4.13614 30.0512C4.43152 30.066 4.63967 30.019 4.58078 30.5196C4.46446 31.5071 4.59237 32.5096 4.79371 33.4898C4.91664 34.0875 4.72064 34.6231 4.23626 34.8644C3.72979 35.1165 3.02511 35.0644 2.75144 34.7223C2.53354 34.4501 2.49048 34.161 2.57274 33.8409C2.59409 33.7579 2.64396 33.6856 2.53814 33.6298Z" fill="#DBE5E9"/>
<path d="M55.8198 43.622C55.9036 43.7681 55.9873 43.9155 55.8439 44.0727C55.2835 44.6874 55.0001 45.4828 54.4887 46.1324C54.0358 46.7077 53.4542 47.0544 52.7501 47.1549C52.2727 47.223 51.7754 47.2308 51.3041 47.0574C51.2132 47.0239 51.1247 46.9738 51.1239 46.8538C51.3254 46.3551 51.6961 45.9751 52.0294 45.5696C52.1098 45.4719 52.2256 45.4112 52.3529 45.3937C52.647 45.3536 52.8598 45.1839 53.0484 44.9722C53.0712 44.9391 53.0959 44.9076 53.1207 44.8762C53.3613 44.5138 53.5804 44.1389 53.7926 43.7602C53.902 43.5653 53.9903 43.3658 54.0083 43.1311C54.0319 42.8284 54.1856 42.6942 54.4872 42.8762L54.4747 42.8654C54.9322 43.1138 55.4173 43.313 55.8336 43.6341L55.8198 43.622Z" fill="#DBE5E9"/>
<path d="M50.019 45.2264C50.2529 45.0032 50.3312 44.6586 50.609 44.4698C50.7114 44.2696 50.8463 44.0881 50.9422 43.8844L50.9379 43.8881C51.4497 43.2379 52.0333 43.0744 52.6705 43.4027C53.3315 43.7434 53.4981 44.3185 53.1283 44.9823L53.1397 44.9695C53.0398 45.0657 52.9226 45.1408 52.8201 45.2347C52.7382 45.3094 52.5948 45.4115 52.5297 45.3618C52.1955 45.1077 52.1434 45.4537 52.0158 45.5935C51.6903 45.9507 51.4679 46.3928 51.1043 46.7208C50.7977 46.9852 50.5634 47.3119 50.3602 47.6546C50.2169 47.8966 50.1184 47.8719 49.966 47.6783C49.7133 47.3577 49.3929 47.1067 49.0543 46.8877C48.8014 46.7241 48.8213 46.6147 49.0263 46.421C49.4036 46.0645 49.8029 45.7195 50.019 45.2264Z" fill="#DBE5E9"/>
<path d="M47.8293 50.89C47.803 50.9104 47.7768 50.9311 47.7503 50.9515C47.6738 51.1751 47.5157 51.3302 47.3252 51.4581L47.3315 51.4523C46.8559 51.8386 46.1932 51.4892 45.8443 50.9761C45.49 50.4555 45.5445 49.8585 45.9773 49.4735C46.0708 49.3903 46.1569 49.2994 46.2491 49.2155C46.3826 49.0533 46.5655 48.9562 46.7389 48.8463L46.7322 48.8527C46.8614 48.6674 47.0052 48.4983 47.2255 48.4156C47.6423 47.916 48.2217 47.5639 48.5238 46.956C48.5971 46.8088 48.7841 46.8511 48.9068 46.9387C49.2751 47.2014 49.6124 47.5008 49.9135 47.8392C50.0353 47.976 50.055 48.1171 49.8756 48.2207C49.5038 48.4351 49.2859 48.7992 49.004 49.101C48.6893 49.5346 48.2242 49.8195 47.8869 50.2306C47.694 50.4351 47.9741 50.6813 47.8293 50.89Z" fill="#DBE5E9"/>
<path d="M26.845 55.488C26.8524 55.2035 26.8802 55.0511 27.2744 55.1479C28.3332 55.4079 29.4245 55.3426 30.505 55.3255C31.0098 55.3176 31.3613 55.5414 31.554 55.9656C31.7553 56.4086 31.7434 56.8839 31.4265 57.2848C31.2185 57.5476 30.89 57.5737 30.5735 57.5846C30.1691 57.5292 29.9647 57.3727 30.0201 57.1659C30.0258 57.1449 30.1123 57.0832 30.0285 57.0919C29.3702 57.16 28.7224 57.012 28.0683 57.0102C27.7384 57.0093 27.4076 56.9776 27.078 57.0173C26.7742 57.0538 26.5798 56.9651 26.5995 56.6171C26.7044 56.2459 26.6932 55.8493 26.845 55.488Z" fill="#DBE5E9"/>
<path d="M2.62056 26.2749C2.47388 25.9576 2.55449 25.6587 2.69951 25.3683C2.81085 25.1453 2.97078 24.9955 3.24647 25.0122C3.49713 25.0273 3.75681 24.9879 3.99845 25.0393C4.59565 25.1659 4.89324 25.7842 4.7795 26.4302C4.59123 27.4995 4.45044 28.5754 4.60504 29.6689C4.64773 29.9713 4.34481 29.9501 4.15083 30.0105C3.91158 30.1279 3.65761 30.0679 3.40879 30.0718C2.71166 30.0072 2.57308 29.8754 2.68884 29.2162C2.83864 28.3619 2.84177 27.4962 2.95735 26.6419C2.98679 26.4243 2.89054 26.5555 2.8414 26.5469C2.68644 26.5202 2.65166 26.3998 2.62056 26.2749Z" fill="#DBE5E9"/>
<path d="M24.7628 54.8138C25.3017 54.9072 25.8227 55.1178 26.391 55.0142C26.5883 54.9783 26.7146 55.1086 26.7101 55.3267C26.8544 55.7569 26.7427 56.1736 26.6432 56.5912C26.5629 56.8926 26.3682 56.9756 26.0844 56.8809C25.9188 56.8257 25.7366 56.8113 25.5971 56.6893C25.4959 56.6793 25.3946 56.6696 25.2934 56.6597C24.5897 56.6024 23.9117 56.395 23.2138 56.2982C23.0566 56.2763 23.0921 56.2903 23.0561 56.4327C22.9821 56.7252 22.6882 56.6497 22.4557 56.637C21.7205 56.5187 21.5269 56.2196 21.6171 55.3423C21.6784 54.7469 22.1808 54.2834 22.7346 54.3115C22.9587 54.3229 23.1796 54.3491 23.3849 54.449C23.8362 54.6001 24.3383 54.5603 24.7628 54.8138Z" fill="#DBE5E9"/>
<path d="M51.34 47.3338C51.3255 47.3561 51.3028 47.4102 51.2642 47.4479C50.7605 47.9411 50.4193 48.5775 49.8707 49.0308C49.7569 49.1247 49.6428 49.2947 49.486 49.1295C49.3436 48.9795 49.4019 48.8113 49.556 48.6948C50.1066 48.2779 50.5043 47.7203 50.9305 47.1917C51.0329 47.0649 51.0943 47.0706 51.1961 47.1358C51.2596 47.1765 51.3724 47.1811 51.34 47.3338Z" fill="#DBE5E9"/>
<path d="M40.9204 55.1625C40.9426 55.331 40.8158 55.3704 40.6987 55.414C40.0016 55.6729 39.3045 55.9313 38.6062 56.1873C38.5048 56.2245 38.3596 56.3688 38.3267 56.1351C38.3085 56.0037 38.2367 55.8198 38.4704 55.7629C38.6986 55.7074 38.9228 55.6361 39.1488 55.5719C39.6166 55.3963 40.0425 55.1276 40.5136 54.9591C40.7394 54.8571 40.8307 55.0218 40.9308 55.1691L40.9204 55.1625Z" fill="#DBE5E9"/>
<path d="M56.7675 35.2175C57.0046 35.2346 56.93 35.4203 56.9044 35.528C56.7346 36.2503 56.5439 36.9675 56.3702 37.689C56.34 37.8145 56.2927 37.8894 56.1629 37.9013L56.1714 37.9076C55.8376 37.8185 55.8602 37.5618 55.9577 37.3413C56.1924 36.8094 56.3389 36.268 56.3477 35.6826C56.3512 35.4404 56.4543 35.2155 56.7675 35.2175Z" fill="#DBE5E9"/>
<path d="M27.7919 57.0955C27.9447 57.4975 27.913 57.5549 27.5357 57.5106C26.8622 57.4316 26.1901 57.3387 25.5165 57.2597C25.2025 57.2227 25.1186 57.1097 25.3529 56.8579C25.6276 56.7094 25.9055 56.7923 26.1604 56.8887C26.6334 57.0676 27.1294 56.887 27.6014 57.0168C27.6695 57.0355 27.7373 57.0475 27.7919 57.0955Z" fill="#DBE5E9"/>
<path d="M27.7919 57.0955C26.97 57.1084 26.1613 56.9846 25.3529 56.8579C25.3854 56.731 25.5483 56.7927 25.5971 56.6893C25.7603 56.7158 25.944 56.7035 26.0826 56.7766C26.35 56.9176 26.4858 56.8125 26.5951 56.585C26.6323 56.5438 26.6641 56.5477 26.6906 56.5962C26.716 56.7495 26.6623 56.9559 26.9367 56.9319C27.8269 56.8546 28.7121 56.9877 29.6001 57.0017C29.809 57.005 30.018 57.0022 30.284 57.0022C30.0729 57.1485 29.9396 57.2774 30.2002 57.4222C30.3182 57.4877 30.4487 57.5312 30.5735 57.5846C30.572 57.619 30.5705 57.6535 30.569 57.6879C30.3979 57.7254 30.2534 57.6392 30.1597 57.5286C29.869 57.1857 29.4968 57.1325 29.0857 57.1679C28.7132 57.1999 28.3468 57.054 27.9722 57.1251C27.9238 57.0432 27.8701 56.9951 27.7919 57.0955Z" fill="#DBE5E9"/>
<path d="M2.28168 31.3276C2.2791 30.536 2.29143 29.7439 2.26696 28.9529C2.25702 28.6309 2.38364 28.6259 2.6146 28.7188C2.79827 28.7993 2.76938 28.9472 2.74895 29.1042C2.69208 29.5393 2.68693 29.9769 2.70294 30.4149L2.69632 30.4032C2.76993 30.5883 2.7657 30.7871 2.7749 30.9788C2.79257 31.3467 2.67828 31.4187 2.28168 31.3276Z" fill="#DBE5E9"/>
<path d="M2.70294 30.4149C2.49001 30.0713 2.60973 29.7099 2.6585 29.3571C2.68886 29.137 2.73165 28.925 2.6146 28.7188C2.58589 28.669 2.55709 28.6191 2.5282 28.569C2.64837 28.5633 2.73211 28.5414 2.74242 28.383C2.77297 27.9109 2.8337 27.4409 2.86204 26.9688C2.87713 26.7178 2.6112 26.586 2.55396 26.3586C2.57623 26.3308 2.59829 26.3029 2.62056 26.2749C2.69988 26.3505 2.71039 26.5203 2.87198 26.4824C3.00578 26.4511 2.89756 26.2894 3.05418 26.1278C3.00338 26.9108 2.96529 27.5931 2.91284 28.2744C2.8821 28.673 2.85247 29.0744 2.77867 29.4664C2.70303 29.8669 2.89149 29.9857 3.23637 29.9961C3.30612 29.9981 3.37569 30.0014 3.44526 30.0043C3.50617 30.0496 3.50617 30.0949 3.44526 30.1403C3.34808 30.1411 3.23288 30.176 3.15669 30.1363C2.83352 29.9675 2.75134 30.1556 2.70294 30.4149Z" fill="#DBE5E9"/>
<path d="M22.3174 3.31252C22.5826 3.08487 22.8703 3.20523 23.0869 3.34528C23.3559 3.5192 23.5783 3.59336 23.8917 3.46895C24.132 3.37362 24.4088 3.32872 24.6681 3.3324C25.0189 3.33755 25.1343 3.19017 25.096 2.86848C25.0986 2.66456 25.2467 2.72268 25.3618 2.72103C25.2802 2.80715 25.124 2.83844 25.1897 3.02358C25.2517 3.19787 25.3824 3.19897 25.5188 3.19253C25.7451 3.18167 25.96 3.0518 26.1954 3.12651C25.4167 3.43754 24.5778 3.47135 23.7682 3.63808C23.4929 3.69495 23.2286 3.88046 22.9172 3.79396C22.9334 3.67931 23.134 3.70434 23.0747 3.54993C23.0262 3.4235 22.924 3.39166 22.8112 3.38319C22.6439 3.37049 22.4761 3.36957 22.3084 3.36368C22.3113 3.34675 22.3143 3.32964 22.3174 3.31252Z" fill="#DBE5E9"/>
<path d="M56.7675 35.2175C56.4778 35.2584 56.4311 35.503 56.4237 35.7102C56.4031 36.2772 56.2686 36.8065 56.0349 37.3209C55.9397 37.5299 55.922 37.7598 56.1714 37.9076C55.9609 37.875 55.8184 37.9621 55.7363 38.1551C55.7124 38.1958 55.6881 38.1938 55.6636 38.1553C55.7185 37.7578 55.8298 37.3761 56.0041 37.0154C56.132 36.7502 56.3162 36.4841 55.7595 36.3582C56.1767 36.466 56.2726 36.3223 56.2447 36.007C56.2204 35.7295 56.2751 35.4579 56.4056 35.2063C56.5262 35.21 56.6468 35.2136 56.7675 35.2175Z" fill="#DBE5E9"/>
<path d="M22.4828 56.6078C22.5796 56.601 22.6769 56.5976 22.7732 56.5862C22.8886 56.5726 22.9905 56.5283 23.0284 56.4079C23.077 56.2524 22.8571 56.3122 22.8385 56.1475C23.6788 56.2796 24.4962 56.4165 25.2934 56.6597C25.1624 56.7036 25.2088 56.8678 25.1085 56.9326C25.1229 56.7394 24.9862 56.7162 24.8436 56.6891C24.5582 56.635 24.2749 56.5697 23.9895 56.517C23.6661 56.4574 23.3536 56.3641 23.0522 56.6437C22.9237 56.7627 22.6839 56.8098 22.4822 56.6917C22.4553 56.6727 22.4465 56.654 22.4557 56.6354C22.4647 56.617 22.4738 56.6078 22.4828 56.6078Z" fill="#DBE5E9"/>
<path d="M51.1043 46.7208C51.5257 46.1217 51.8993 45.4855 52.4304 44.9459C52.5272 45.1024 52.2661 45.1969 52.4153 45.2936C52.5294 45.3675 52.6498 45.2693 52.762 45.2142C52.8984 45.1474 52.9704 44.9833 53.1397 44.9695C53.0192 45.2652 52.7727 45.4419 52.4838 45.4678C52.2224 45.4914 52.084 45.6151 51.9453 45.7984C51.6766 46.1539 51.3985 46.5023 51.1239 46.8538C51.1175 46.8093 51.1107 46.7651 51.1043 46.7208Z" fill="#DBE5E9"/>
<path d="M5.14207 41.1868C4.96631 40.9527 4.87439 40.6785 4.76894 40.4103C4.61895 40.0292 4.5111 39.6144 4.01972 39.5095C3.96598 39.4979 3.82059 39.4408 3.92678 39.3175C3.94151 39.3008 4.00545 39.3267 4.04649 39.3328C4.22409 39.3409 4.22419 39.3409 4.26597 39.0087C4.68097 39.8143 5.03938 40.5638 5.30733 41.3555C5.25212 41.2992 5.1971 41.2431 5.14207 41.1868Z" fill="#DBE5E9"/>
<path d="M35.1005 54.6487C35.4362 54.3966 35.862 54.4831 36.2365 54.3516C36.5535 54.2403 36.8882 54.1573 37.214 54.0577C37.2171 54.1129 37.2205 54.1683 37.2236 54.2237C36.5598 54.4397 35.8915 54.6396 35.197 54.7353C35.165 54.7064 35.1327 54.6776 35.1005 54.6487Z" fill="#DBE5E9"/>
<path d="M40.5089 54.9977C40.0496 55.1749 39.677 55.5577 39.1488 55.5719C39.0945 55.5473 39.0402 55.5228 38.9861 55.4981C39.3778 55.4359 39.389 55.1652 39.3167 54.8602C39.4194 54.8308 39.4023 54.9025 39.4146 54.9406C39.4272 54.9795 39.4358 55.0203 39.4408 55.0608C39.4733 55.3236 39.6165 55.3334 39.8044 55.2141C39.9901 55.0963 40.1607 54.9451 40.406 54.9924C40.4427 54.9537 40.4767 54.9555 40.5089 54.9977Z" fill="#DBE5E9"/>
<path d="M16.9347 53.8204C16.562 53.7374 16.268 53.492 15.9316 53.3341C15.8203 53.282 15.7222 53.1919 15.5844 53.2277C15.5323 53.2289 15.48 53.2298 15.4279 53.2307C15.4965 52.939 15.1502 52.9233 15.0874 52.7192L15.0804 52.7268C15.5359 52.8256 15.8694 53.1547 16.2649 53.3667C16.4986 53.492 16.8024 53.5377 16.9347 53.8204Z" fill="#DBE5E9"/>
<path d="M40.4374 6.99103C41.0591 7.23267 41.6482 7.53569 42.192 7.92382C42.1609 7.95879 42.1287 7.96192 42.095 7.92787C41.5026 7.71789 40.9715 7.38478 40.4201 7.09253L40.4374 6.99103Z" fill="#DBE5E9"/>
<path d="M47.8323 50.1992C48.1553 49.761 48.601 49.4534 49.004 49.101C49.1091 49.1499 49.2656 49.0185 49.334 49.1952C49.1192 49.1597 48.9695 49.2504 48.8226 49.4074C48.5361 49.7131 48.226 49.9963 47.9255 50.289C47.8691 50.2853 47.8592 50.2336 47.8323 50.1992Z" fill="#DBE5E9"/>
<path d="M24.7628 54.8138C24.3073 54.7238 23.8392 54.6847 23.4131 54.4775C23.4111 54.4587 23.4092 54.4398 23.4072 54.421C23.8734 54.4265 24.3133 54.5746 24.7628 54.6712C24.7628 54.7185 24.7628 54.7663 24.7628 54.8138Z" fill="#DBE5E9"/>
<path d="M18.3636 7.50422C17.9271 7.85426 17.396 8.04547 16.9361 8.35613C16.9044 8.32447 16.8726 8.29274 16.8411 8.26109C17.3342 7.97988 17.7705 7.58427 18.3636 7.50422Z" fill="#DBE5E9"/>
<path d="M15.4245 6.1449C15.5237 6.18943 15.5056 6.28071 15.5019 6.35893C15.4872 6.6602 15.626 6.78774 15.9234 6.74541C15.7258 7.0154 15.4073 7.08165 15.1453 7.24286C15.4887 6.90994 15.5124 6.77228 15.2408 6.56744C15.4274 6.48113 15.4429 6.32029 15.4245 6.1449Z" fill="#DBE5E9"/>
<path d="M56.7504 33.6893C56.7692 34.172 56.5421 34.6276 56.594 35.114C56.5046 35.1626 56.4897 35.033 56.4174 35.0401L56.6562 33.5134C56.7375 33.5454 56.6906 33.6461 56.7504 33.6893Z" fill="#DBE5E9"/>
<path d="M49.9313 14.6633C50.3725 14.9813 50.5322 15.5071 50.8523 15.9158C50.4454 15.5542 50.1574 15.0995 49.8578 14.6545C49.8815 14.663 49.9061 14.6659 49.9313 14.6633Z" fill="#DBE5E9"/>
<path d="M42.2763 5.91054C41.7619 5.85183 41.3834 5.4867 40.9214 5.31003C40.9277 5.27874 40.934 5.24725 40.9404 5.21597C41.4255 5.37093 41.8887 5.56805 42.2763 5.91054Z" fill="#DBE5E9"/>
<path d="M6.5744 20.0919C6.53999 20.6305 6.29448 21.0971 6.06867 21.5702C6.04511 21.545 6.02155 21.5194 5.99799 21.4942C6.15866 21.0137 6.32393 20.5354 6.5744 20.0919Z" fill="#DBE5E9"/>
<path d="M24.7639 5.31159C24.323 5.40472 23.882 5.49803 23.4409 5.59115C23.8395 5.29908 24.3162 5.26982 24.7689 5.16234C24.7672 5.21203 24.7656 5.2619 24.7639 5.31159Z" fill="#DBE5E9"/>
<path d="M26.6906 56.5962C26.6588 56.5924 26.627 56.5887 26.5951 56.585C26.6759 56.1695 26.7041 55.749 26.7101 55.3267C26.7552 55.3806 26.8001 55.4343 26.845 55.4882C26.9017 55.8724 26.8246 56.2383 26.6906 56.5962Z" fill="#DBE5E9"/>
<path d="M54.8186 33.4407C54.8092 33.0334 54.8664 32.6344 54.9706 32.2415C55.0766 32.3054 54.9873 32.4347 55.0604 32.5095C55.0168 32.8205 55.0434 33.1433 54.9066 33.4388C54.877 33.4396 54.8478 33.4401 54.8186 33.4407Z" fill="#DBE5E9"/>
<path d="M6.22628 38.8218C6.38382 39.2521 6.62841 39.6485 6.72779 40.1018C6.70699 40.1016 6.6867 40.0988 6.66682 40.093C6.40383 39.713 6.25973 39.2827 6.14047 38.8423C6.169 38.8355 6.19776 38.8286 6.22628 38.8218Z" fill="#DBE5E9"/>
<path d="M16.9331 51.6225C17.2792 51.889 17.7185 52.0047 18.0439 52.3051C17.5619 52.2738 17.2333 51.9268 16.8376 51.7181C16.8695 51.686 16.9012 51.6543 16.9331 51.6225Z" fill="#DBE5E9"/>
<path d="M37.1415 5.81355C36.6853 5.76405 36.2282 5.71603 35.8677 5.38311C36.2919 5.50439 36.716 5.62584 37.1404 5.7473C37.1312 5.76957 37.1317 5.79165 37.1415 5.81355Z" fill="#DBE5E9"/>
<path d="M53.8146 22.0785C53.6002 21.6878 53.4686 21.2697 53.4035 20.8285C53.6376 21.2128 53.7727 21.6363 53.902 22.062C53.8728 22.0675 53.8437 22.073 53.8146 22.0785Z" fill="#DBE5E9"/>
<path d="M58.9423 29.9894C58.6026 29.9863 58.2629 29.9832 57.9231 29.98C57.9025 29.9655 57.8955 29.9508 57.9021 29.9359C57.9086 29.9208 57.9154 29.9132 57.9222 29.9132C58.2607 29.7747 58.6012 29.7936 58.9434 29.8989C58.943 29.9291 58.9427 29.9593 58.9423 29.9894Z" fill="#DBE5E9"/>
<path d="M26.7033 4.73519C26.6177 4.37134 26.5456 4.00542 26.5338 3.63017C26.5636 3.59907 26.5701 3.54569 26.6233 3.53723C26.7479 3.92868 26.6913 4.35432 26.8519 4.73896L26.7033 4.73519Z" fill="#DBE5E9"/>
<path d="M48.8325 13.0438C49.0112 12.8222 49.2046 12.6179 49.4731 12.4948C49.3647 12.7736 49.145 12.9593 48.9345 13.152C48.9148 13.1025 48.9013 13.0471 48.8325 13.0438Z" fill="#DBE5E9"/>
<path d="M2.28168 31.3276C2.61037 31.3957 2.73441 31.2547 2.70386 30.9313C2.6873 30.7567 2.69797 30.5793 2.69632 30.4032C2.84207 30.4722 2.79974 30.6017 2.79809 30.7184C2.84502 30.8653 2.80453 31.0184 2.82643 31.1656C2.86232 31.4052 2.73404 31.4777 2.52976 31.4881C2.50068 31.489 2.47152 31.4899 2.44244 31.491C2.38889 31.4365 2.33542 31.382 2.28168 31.3276Z" fill="#DBE5E9"/>
<path d="M53.7141 38.3985C53.6222 38.6767 53.6014 38.9826 53.3838 39.2587C53.3474 38.9038 53.5288 38.662 53.6467 38.4007C53.6694 38.4066 53.692 38.406 53.7141 38.3985Z" fill="#DBE5E9"/>
<path d="M5.31654 41.4382C5.48732 41.6206 5.5898 41.8289 5.5863 42.1228C5.32718 41.9634 5.40874 41.6042 5.13416 41.51C5.19489 41.486 5.25562 41.4621 5.31654 41.4382Z" fill="#DBE5E9"/>
<path d="M3.44526 30.1403V30.0043C3.68046 30.0064 3.91563 30.0085 4.15083 30.0105L4.15807 30.0362L4.13599 30.0513C3.92435 30.2239 3.68064 30.1503 3.44526 30.1403Z" fill="#DBE5E9"/>
<path d="M36.1093 56.6891C36.2666 56.8868 36.055 56.9127 35.9637 56.9686C35.8272 57.0526 35.6715 57.1056 35.5239 57.1718C35.5261 57.1219 35.5283 57.0719 35.5305 57.022C35.7523 56.9611 35.9376 56.8371 36.1093 56.6891Z" fill="#DBE5E9"/>
<path d="M38.9937 53.9007C39.1324 54.0338 39.1768 54.202 39.2313 54.5031C39.0244 54.2633 38.9578 54.0904 38.8976 53.9139C38.9294 53.9095 38.9617 53.9051 38.9937 53.9007Z" fill="#DBE5E9"/>
<path d="M47.2255 48.4156C47.1182 48.6258 46.878 48.6862 46.7322 48.8527C46.7551 48.5884 46.9874 48.4916 47.1458 48.336C47.1725 48.3625 47.1988 48.3889 47.2255 48.4156Z" fill="#DBE5E9"/>
<path d="M50.5862 16.3945C51.3025 17.1814 52.6541 19.8084 52.7446 20.5211C52.1136 19.1002 51.4162 17.714 50.5862 16.3945Z" fill="#DBE5E9"/>
<path d="M56.219 17.8188C56.835 18.5179 57.0659 20.2275 56.5733 20.9325C56.8149 19.7998 56.6898 18.7865 56.219 17.8188Z" fill="#DBE5E9"/>
<path d="M44.1221 9.72544C43.3898 9.27473 42.6238 8.87427 41.9747 8.29786C42.6848 8.78758 43.5087 9.09824 44.1538 9.68826C44.1431 9.7006 44.1326 9.71311 44.1221 9.72544Z" fill="#DBE5E9"/>
<path d="M48.8294 8.24316C48.5232 7.82006 48.0859 7.51713 47.7806 7.09311C48.1708 7.4391 48.6667 7.68774 48.8294 8.24316Z" fill="#DBE5E9"/>
<path d="M55.5729 21.4025C55.2887 21.09 55.2365 20.6829 55.129 20.2995C55.1047 20.2125 55.187 20.1886 55.2622 20.1843C55.3279 20.1808 55.3839 20.2129 55.3616 20.2765C55.216 20.6943 55.5859 21.0103 55.5764 21.3995L55.5729 21.4025Z" fill="#DBE5E9"/>
<path d="M44.1538 9.68826C44.5781 9.91813 44.9596 10.1993 45.2158 10.6357C44.8512 10.3324 44.4867 10.0289 44.1221 9.72544C44.1206 9.70299 44.1313 9.69047 44.1538 9.68826Z" fill="#DBE5E9"/>
<path d="M51.2218 14.1614C50.8995 13.9623 50.8108 13.6825 50.5717 13.4687C50.8686 13.5419 50.9993 13.6809 51.2218 14.1614Z" fill="#DBE5E9"/>
<path d="M47.8214 9.05821C48.0163 9.29746 47.816 9.60719 47.9596 9.86172C47.8565 9.77319 47.7518 9.68688 47.6517 9.59541C47.6163 9.56302 47.554 9.50542 47.6182 9.4699C47.6946 9.42776 47.8103 9.46696 47.8331 9.32635C47.8482 9.23525 47.7201 9.15869 47.8214 9.05821Z" fill="#DBE5E9"/>
<path d="M55.7402 22.078C55.8293 22.0594 55.9929 22.0699 55.966 22.1323C55.8486 22.405 56.0481 22.6367 56.0151 22.896C55.8482 22.6448 55.7542 22.3732 55.7464 22.0724L55.7402 22.078Z" fill="#DBE5E9"/>
<path d="M55.2352 21.9927C55.4382 22.2781 55.4641 22.6225 55.5444 22.9486C55.412 22.6385 55.1895 22.3576 55.2414 21.9877L55.2352 21.9927Z" fill="#DBE5E9"/>
<path d="M55.4048 19.1585C55.512 19.4237 55.6386 19.6877 55.4409 20.0224C55.3962 19.7053 55.3579 19.4339 55.3195 19.1622C55.3463 19.1223 55.3747 19.1192 55.4048 19.1585Z" fill="#DBE5E9"/>
<path d="M50.0307 11.739C50.1205 11.8547 50.2886 11.9018 50.3072 12.0739C50.0217 12.1238 50.0217 12.1238 50.0307 11.739Z" fill="#DBE5E9"/>
<path d="M43.6207 5.91618C43.617 5.94508 43.6133 5.97397 43.6096 6.00287C43.3137 5.88545 43.0178 5.76895 42.6883 5.82637C43.0163 5.67767 43.3303 5.67344 43.6207 5.91618Z" fill="#DBE5E9"/>
<path d="M52.358 14.8466C52.2507 14.7623 52.1009 14.7117 52.1544 14.584C52.2267 14.411 52.3889 14.5208 52.5164 14.4831C52.5196 14.6515 52.2954 14.667 52.358 14.8466Z" fill="#DBE5E9"/>
<path d="M56.3322 24.2603C56.1368 24.0417 56.3015 23.7257 56.1274 23.5012C56.2032 23.4946 56.3186 23.3801 56.3206 23.5741C56.3228 23.803 56.3284 24.0316 56.3322 24.2603Z" fill="#DBE5E9"/>
<path d="M55.6042 16.7964C56.1259 16.7044 55.9722 17.1616 56.097 17.4008C55.8916 17.2379 55.9338 16.8704 55.6042 16.7964Z" fill="#DBE5E9"/>
<path d="M47.4934 10.1276C47.7098 10.2185 47.9616 10.2956 47.9954 10.6558C47.7972 10.4472 47.6452 10.2875 47.4934 10.1276Z" fill="#DBE5E9"/>
<path d="M50.8862 12.9137C51.3102 12.7652 51.1602 13.1161 51.2491 13.357C51.0778 13.1877 50.9057 13.1156 50.8862 12.9137Z" fill="#DBE5E9"/>
<path d="M42.6987 5.81963C42.6028 5.91864 42.7038 6.02957 42.6733 6.17128C42.5516 6.0408 42.3008 6.17022 42.2684 5.90502C42.4031 5.83214 42.5492 5.81687 42.6987 5.81963Z" fill="#DBE5E9"/>
<path d="M55.5092 23.5853C55.2965 23.7496 55.0793 23.8959 54.793 23.7601C55.0136 23.6272 55.2582 23.5928 55.5092 23.5853Z" fill="#DBE5E9"/>
<path d="M55.2414 21.9877C55.0022 21.8309 55.0409 21.5754 55.0077 21.3456C55.2036 21.52 55.2453 21.7476 55.2352 21.9927L55.2414 21.9877Z" fill="#DBE5E9"/>
<path d="M54.6768 14.9825C54.5452 14.7871 54.4138 14.5915 54.2822 14.3958C54.5334 14.5116 54.658 14.7116 54.6768 14.9825Z" fill="#DBE5E9"/>
<path d="M43.7384 4.55137C44.0818 4.57401 44.278 4.69879 44.5338 4.90289C44.2079 4.8578 44.0141 4.7275 43.7384 4.55137Z" fill="#DBE5E9"/>
<path d="M48.9964 8.55515C49.2046 8.69742 49.2745 8.90703 49.2058 9.16156C49.1361 8.95949 49.0662 8.75723 48.9964 8.55515Z" fill="#DBE5E9"/>
<path d="M55.0005 16.7043C54.913 16.9539 54.7284 16.9552 54.492 17.0875C54.6377 16.8041 54.8013 16.7676 55.0005 16.7043Z" fill="#DBE5E9"/>
<path d="M55.7464 22.0724C55.6441 21.8606 55.5107 21.657 55.5729 21.4025L55.5762 21.3995C55.7662 21.5929 55.7558 21.8347 55.7402 22.078L55.7464 22.0724Z" fill="#DBE5E9"/>
<path d="M11.3015 8.29313C10.4662 8.47882 9.82993 8.97444 9.22408 9.52379C9.77914 8.86567 10.4027 8.32552 11.3015 8.29313Z" fill="#DBE5E9"/>
<path d="M4.46514 20.3041C4.61108 19.9467 4.71138 19.5597 4.91769 19.2411C5.08167 18.9882 4.89929 18.5296 5.41349 18.4529C5.1343 19.0889 4.8669 19.6982 4.59931 20.3074C4.5533 20.3575 4.50857 20.3564 4.46514 20.3041Z" fill="#DBE5E9"/>
<path d="M13.1286 8.26158C13.559 8.50304 13.7374 8.03687 14.0594 7.94541C13.675 8.40789 13.1814 8.72481 12.6998 9.05957C12.7367 8.71082 13.3744 8.7491 13.1352 8.25459L13.1286 8.26158Z" fill="#DBE5E9"/>
<path d="M1.29867 23.9832C1.4205 24.8015 1.09604 25.5939 1.15825 26.4164C1.11647 26.1644 0.99427 25.9372 1.06752 25.6609C1.14095 25.3839 1.13911 25.0878 1.1842 24.8022C1.22671 24.5318 1.31339 24.2681 1.29867 23.9832Z" fill="#DBE5E9"/>
<path d="M12.5608 11.4903C12.969 11.1293 13.3774 10.7682 13.7856 10.4069C13.8125 10.4388 13.8395 10.4704 13.8664 10.5022C13.4317 10.8497 13.0907 11.3045 12.5678 11.5511L12.5397 11.5237L12.5608 11.4903Z" fill="#DBE5E9"/>
<path d="M16.926 6.20618C17.1482 5.95239 17.1844 5.59923 17.3843 5.33753C17.4796 5.21257 17.5867 5.07012 17.7754 5.06128C17.678 5.17502 17.5751 5.28452 17.4859 5.40396C17.4296 5.47924 17.3611 5.56721 17.3541 5.65389C17.3201 6.0746 17.3267 6.07515 16.926 6.20618Z" fill="#DBE5E9"/>
<path d="M11.3862 10.0309C11.4596 9.90647 11.6576 9.92304 11.6118 9.76053C11.58 9.64808 11.4734 9.70845 11.3998 9.69869C11.3206 9.6882 11.2399 9.68968 11.1386 9.68471C11.4226 9.48061 11.6979 9.56177 12.0051 9.62269C11.8251 9.81335 11.7077 10.0412 11.3862 10.0309Z" fill="#DBE5E9"/>
<path d="M13.3252 9.20406C12.9527 9.52484 12.6551 9.8355 12.2221 10.0598C12.4297 9.76777 13.0578 9.26995 13.3252 9.20406Z" fill="#DBE5E9"/>
<path d="M13.437 9.0718C13.6284 8.77899 13.9002 8.57802 14.278 8.31669C14.0402 8.73169 13.7114 8.87303 13.437 9.0718Z" fill="#DBE5E9"/>
<path d="M15.344 7.60443C15.6674 7.42057 15.9909 7.23654 16.3143 7.05268C16.3323 7.08581 16.3505 7.11875 16.3686 7.15188C16.0419 7.33132 15.7445 7.56228 15.344 7.60443Z" fill="#DBE5E9"/>
<path d="M12.7618 11.9586C12.5976 12.3318 12.3048 12.5775 11.9965 12.8087C12.2516 12.5254 12.5067 12.242 12.7618 11.9586Z" fill="#DBE5E9"/>
<path d="M2.19746 20.9784C2.25249 20.6471 2.40432 20.3641 2.62995 20.1179C2.53738 20.4298 2.45659 20.748 2.18992 20.9714L2.19746 20.9784Z" fill="#DBE5E9"/>
<path d="M2.18992 20.9714C2.19765 21.3756 2.06358 21.7402 1.87752 22.0903C1.86408 22.0779 1.85065 22.0658 1.83721 22.0535C1.88212 21.6699 2.02888 21.3205 2.19746 20.9784L2.18992 20.9714Z" fill="#DBE5E9"/>
<path d="M6.56963 12.5205C6.75293 12.2824 6.93624 12.0444 7.11954 11.8063C7.05605 12.1337 6.90311 12.3946 6.56963 12.5205Z" fill="#DBE5E9"/>
<path d="M5.49749 19.1508C5.47467 19.5266 5.34253 19.8538 5.07107 20.1198L5.49749 19.1508Z" fill="#DBE5E9"/>
<path d="M1.59909 23.0875C1.93532 23.1506 2.27174 23.2139 2.60798 23.277C2.59896 23.3151 2.58994 23.3534 2.58074 23.3917C2.25352 23.298 1.89465 23.3348 1.60645 23.0786L1.59909 23.0875Z" fill="#DBE5E9"/>
<path d="M7.40129 14.2779C7.53122 14.3122 7.63042 14.3712 7.74839 14.3295C7.71857 14.5551 7.56288 14.6572 7.43055 14.8853C7.41822 14.6296 7.41031 14.4647 7.40129 14.2779Z" fill="#DBE5E9"/>
<path d="M4.46514 20.3041C4.50986 20.3052 4.55458 20.3063 4.59931 20.3074C4.55054 20.4821 4.4679 20.6396 4.35821 20.7833C4.20289 20.4462 4.20289 20.4462 4.46514 20.3041Z" fill="#DBE5E9"/>
<path d="M14.7599 7.45005C14.4513 7.5625 14.6175 7.79365 14.6697 8.10651C14.4629 7.91475 14.4012 7.76034 14.4121 7.62526C14.4244 7.47085 14.5875 7.44398 14.7599 7.45005Z" fill="#DBE5E9"/>
<path d="M9.81806 15.3126C9.96585 15.0748 10.1105 14.8334 10.4081 14.5873C10.2517 14.9438 10.1 15.1775 9.81806 15.3126Z" fill="#DBE5E9"/>
<path d="M15.1401 8.74144C14.9033 8.61869 14.7951 8.39398 14.6898 8.16706C14.9611 8.26258 15.0269 8.52078 15.1401 8.74144Z" fill="#DBE5E9"/>
<path d="M1.87752 22.0903C1.87531 22.303 1.67431 22.4848 1.7702 22.7152C1.44279 22.4632 1.78897 22.2713 1.83737 22.0536C1.85007 22.0665 1.86353 22.0787 1.87752 22.0903Z" fill="#DBE5E9"/>
<path d="M7.2133 15.9781C7.33753 15.7693 7.46175 15.5602 7.58598 15.3513L7.67671 15.4008C7.59499 15.6391 7.42568 15.8337 7.28029 16.0403C7.23354 16.0459 7.21238 16.024 7.2133 15.9781Z" fill="#DBE5E9"/>
<path d="M8.44676 13.462C8.64589 13.6665 8.60559 13.8378 8.44676 14.1315V13.462Z" fill="#DBE5E9"/>
<path d="M17.6685 6.30628C17.8868 6.16402 18.1048 6.02157 18.3229 5.87931C18.1926 6.14911 17.9591 6.26229 17.7081 6.3499C17.6696 6.35836 17.6565 6.34382 17.6685 6.30628Z" fill="#DBE5E9"/>
<path d="M11.0748 13.8229C11.1454 13.6042 11.2505 13.4149 11.5062 13.3554C11.3624 13.5113 11.2187 13.667 11.0748 13.8229Z" fill="#DBE5E9"/>
<path d="M6.46907 12.7189C6.49152 12.9751 6.33104 13.1041 6.20387 13.3522C6.19283 13.0391 6.2981 12.8846 6.46907 12.7189Z" fill="#DBE5E9"/>
<path d="M7.28029 16.0403C7.19637 16.1861 7.11251 16.332 7.02859 16.4778C6.98386 16.2577 7.04331 16.0922 7.21336 15.9783C7.23563 15.9989 7.25802 16.0197 7.28029 16.0403Z" fill="#DBE5E9"/>
<path d="M7.72948 15.1695C7.82739 15.0092 7.92511 14.8489 8.02302 14.6888C8.04842 14.9195 7.9367 15.078 7.72948 15.1695Z" fill="#DBE5E9"/>
<path d="M17.7081 6.3499C17.5413 6.51498 17.3343 6.6007 17.1113 6.65868C17.262 6.48292 17.4567 6.38118 17.6685 6.30628C17.681 6.32137 17.6943 6.33591 17.7081 6.3499Z" fill="#DBE5E9"/>
<path d="M15.9126 6.75314C16.1006 6.60518 16.2523 6.39224 16.5317 6.40826C16.3498 6.56708 16.2011 6.78572 15.9126 6.75314Z" fill="#DBE5E9"/>
<path d="M43.7923 53.8962C43.7923 53.8978 43.7916 53.8995 43.7907 53.9011L43.7873 53.8978C43.7888 53.8969 43.7907 53.8969 43.7923 53.8962Z" fill="#DBE5E9"/>
<path d="M43.7871 53.8979C43.5398 54.28 43.1198 54.3466 42.7846 54.2126C42.4276 54.07 42.1885 54.1471 41.9123 54.3149C41.8599 54.3466 41.7973 54.4077 41.6996 54.309C41.9497 54.1208 42.2202 53.9886 42.5029 53.8741C42.5552 53.853 42.6172 53.8081 42.6463 53.8684C42.9126 54.4222 43.2795 54.0284 43.6071 53.9706C43.6671 53.9599 43.7098 53.8765 43.7904 53.9012L43.7871 53.8979Z" fill="#DBE5E9"/>
<path d="M44.5777 54.974C44.2251 55.5162 42.5989 55.7727 42.0544 55.3971C42.9924 55.5544 43.784 55.4083 44.5777 54.974Z" fill="#DBE5E9"/>
<path d="M47.1377 53.3968C47.662 52.8953 48.1864 52.3936 48.7107 51.8921C48.3071 52.5166 47.7778 53.0133 47.2288 53.4899C47.1984 53.4588 47.1681 53.4279 47.1377 53.3968Z" fill="#DBE5E9"/>
<path d="M36.4605 55.6763C37.0704 55.5015 37.6805 55.3267 38.2904 55.1518C37.7298 55.4814 37.1237 55.6614 36.4984 55.7798C36.4859 55.7453 36.473 55.7108 36.4605 55.6763Z" fill="#DBE5E9"/>
<path d="M40.4599 54.3549C41.0217 54.0816 41.5834 53.8085 42.1455 53.5352L42.1907 53.6326C41.637 53.9252 41.0998 54.2533 40.4599 54.3549Z" fill="#DBE5E9"/>
<path d="M37.3797 56.0087C37.3221 56.1399 37.1917 56.0802 37.0985 56.1176C36.7814 56.2448 36.405 56.2687 36.21 56.6144C35.7745 56.3254 36.062 56.274 36.3397 56.2133C36.685 56.138 37.0179 56.0002 37.3797 56.0087Z" fill="#DBE5E9"/>
<path d="M36.3729 55.8147C36.1022 55.9022 35.8352 56.0026 35.5602 56.0733C35.284 56.1445 35.0825 56.3063 34.9032 56.5919C34.9639 56.1243 35.6024 55.788 36.3729 55.8147Z" fill="#DBE5E9"/>
<path d="M45.8879 54.3937C45.4801 54.6135 45.0723 54.833 44.6646 55.0528C45.0204 54.7361 45.3807 54.428 45.8879 54.3937Z" fill="#DBE5E9"/>
<path d="M41.8105 52.1995C41.4305 52.54 40.998 52.7697 40.5425 52.9542C40.5261 52.923 40.5097 52.8917 40.4931 52.8604C40.9324 52.6401 41.3714 52.4198 41.8105 52.1995Z" fill="#DBE5E9"/>
<path d="M44.6873 49.8267C45.0214 49.5085 45.3624 49.2 45.8289 49.0614C45.4673 49.3373 45.1057 49.6132 44.7442 49.8892C44.6989 49.892 44.6802 49.8712 44.6873 49.8267Z" fill="#DBE5E9"/>
<path d="M44.7442 49.8892C44.4525 50.1497 44.1615 50.4111 43.7818 50.5444C44.0207 50.2238 44.3787 50.0564 44.6873 49.8267C44.7065 49.8475 44.7253 49.8685 44.7442 49.8892Z" fill="#DBE5E9"/>
<path d="M40.5089 54.9977C40.4745 54.9959 40.4405 54.9942 40.4062 54.9924C40.5244 54.7316 40.8157 54.7848 41.009 54.66C41.0344 54.678 41.0436 54.6968 41.036 54.7163C41.0285 54.736 41.0206 54.7459 41.0123 54.7459C40.921 54.8746 40.8658 55.0102 40.9308 55.1691C40.7906 55.1109 40.6913 54.9519 40.5089 54.9977Z" fill="#DBE5E9"/>
<path d="M45.6587 52.8866C45.9873 52.9297 45.9865 53.295 46.2024 53.4504C45.9269 53.3775 45.7881 53.1513 45.635 52.9413L45.6229 52.9036L45.6587 52.8866Z" fill="#DBE5E9"/>
<path d="M47.8323 50.1992C47.8634 50.2292 47.8944 50.2592 47.9255 50.2892C47.8789 50.487 47.9999 50.7119 47.8293 50.89C47.9375 50.6602 47.4926 50.4279 47.8323 50.1992Z" fill="#DBE5E9"/>
<path d="M43.1291 50.9842C42.9835 51.1656 42.8085 51.2897 42.5021 51.3039C42.6959 51.0977 42.8985 51.0285 43.087 50.938C43.1332 50.9242 43.1473 50.9396 43.1291 50.9842Z" fill="#DBE5E9"/>
<path d="M38.416 55.1516C38.6827 55.0318 38.9838 55.0745 38.9094 54.6472C39.0556 55.1642 39.0443 55.1754 38.416 55.1516Z" fill="#DBE5E9"/>
<path d="M43.087 50.938C43.2508 50.7663 43.459 50.6735 43.7198 50.6615C43.5229 50.769 43.3259 50.8767 43.1291 50.9842C43.1227 50.9617 43.1087 50.9465 43.087 50.938Z" fill="#DBE5E9"/>
<path d="M46.3679 49.1815C46.3197 49.1802 46.2715 49.1789 46.2233 49.1776C46.3685 49.0256 46.4533 48.7797 46.7389 48.8461C46.664 49.0121 46.5188 49.1001 46.3679 49.1815Z" fill="#DBE5E9"/>
<path d="M41.0123 54.7459C41.0112 54.7172 41.0101 54.6887 41.009 54.66C41.1159 54.5058 41.2536 54.4277 41.4861 54.4693C41.3725 54.6868 41.1415 54.6331 41.0123 54.7459Z" fill="#DBE5E9"/>
<path d="M47.3252 51.4581C47.4671 51.2894 47.6084 51.1204 47.7503 50.9515C47.7421 51.2325 47.6145 51.4132 47.3252 51.4581Z" fill="#DBE5E9"/>
<path d="M26.6233 3.53723C26.5933 3.56815 26.5635 3.5991 26.5337 3.63002C26.4726 3.42574 26.681 3.03247 26.1852 3.1324C26.4166 2.87622 26.7323 3.01092 27.0062 2.95202C27.2969 2.88945 27.642 3.12152 27.8864 2.77093C27.9587 2.66713 27.9565 2.87252 28.0469 2.87086C28.6338 2.86166 29.2293 2.9154 29.8022 2.82412C29.9802 2.79559 30.0446 2.8451 30.232 2.94301C29.5398 3.01588 28.9157 3.05876 28.2891 3.02803C27.806 3.00447 27.3404 3.19569 26.8409 3.08655C26.641 3.04294 26.6816 3.37252 26.6233 3.53723Z" fill="#DBE5E9"/>
<path d="M33.7592 1.11512C34.9128 1.32603 36.1349 1.35308 37.0695 2.25045C36.0829 1.51357 34.8767 1.46479 33.7592 1.11512Z" fill="#DBE5E9"/>
<path d="M39.2487 4.54308C38.5624 4.56388 38.007 4.1312 37.2797 4.04784C37.6203 3.7416 38.0584 4.43984 38.2691 3.78024C38.2144 4.28046 38.5957 4.26739 38.8643 4.36677C38.9892 4.41315 39.1458 4.36751 39.2485 4.49155C39.2485 4.50867 39.2487 4.52597 39.2487 4.54308Z" fill="#DBE5E9"/>
<path d="M39.8321 5.22325C40.4269 5.51587 41.0219 5.80849 41.6167 6.1011C40.9722 5.91118 40.3349 5.70579 39.8321 5.22325Z" fill="#DBE5E9"/>
<path d="M37.98 4.72166C37.4147 4.54314 36.8223 4.44799 36.1761 4.12206C36.8732 4.24868 37.443 4.38174 37.9821 4.62909C38.0091 4.65025 38.0178 4.67105 38.0082 4.69129C37.9988 4.71153 37.9894 4.72166 37.98 4.72166Z" fill="#DBE5E9"/>
<path d="M29.6354 3.37436C29.9025 3.27167 30.1855 3.33148 30.4603 3.29762C30.7638 3.25989 31.0573 3.23744 31.2796 2.89439C31.2016 3.33976 31.1707 3.35632 30.3841 3.44724C30.1401 3.36792 29.876 3.49104 29.6354 3.37436Z" fill="#DBE5E9"/>
<path d="M29.6354 3.37436C29.88 3.45037 30.1426 3.34013 30.3841 3.44724C29.8062 3.45846 29.2283 3.46951 28.6503 3.48073C28.3919 3.47355 28.1169 3.61471 27.8821 3.39534L29.6354 3.37436Z" fill="#DBE5E9"/>
<path d="M35.8855 3.59057C36.4211 3.38849 36.7527 3.86257 37.1959 3.8692C36.9607 3.93876 36.9596 3.94245 36.5503 3.81896C36.3392 3.75546 36.1327 3.67614 35.8855 3.59057Z" fill="#DBE5E9"/>
<path d="M30.3721 0.957499H32.4028C32.4026 0.974247 32.4026 0.990994 32.4026 1.00756H30.3557C30.3611 0.990994 30.3666 0.974247 30.3721 0.957499Z" fill="#DBE5E9"/>
<path d="M27.8821 3.39534C28.1241 3.55103 28.3979 3.41838 28.6502 3.48059C28.125 3.65469 27.5894 3.46126 27.0513 3.46826C27.3283 3.44415 27.6053 3.41963 27.8821 3.39534Z" fill="#DBE5E9"/>
<path d="M39.2487 4.54308C39.2531 4.52578 39.2531 4.50867 39.2485 4.49155C39.4467 4.44977 39.5822 4.57087 39.8268 4.70172C39.4221 4.68295 39.4206 5.03299 39.1942 5.13513C39.1028 4.92864 39.4703 4.75951 39.2487 4.54308Z" fill="#DBE5E9"/>
<path d="M42.8543 6.76494C42.4979 6.74285 42.2658 6.44416 41.9371 6.35858C42.2923 6.38674 42.5915 6.55256 42.8854 6.73218C42.875 6.74304 42.8647 6.75389 42.8543 6.76494Z" fill="#DBE5E9"/>
<path d="M37.98 4.72166C37.9808 4.69074 37.9815 4.65982 37.9821 4.62909C38.2868 4.69902 38.5916 4.76914 38.9617 4.85417C38.5607 4.98115 38.2824 4.77466 37.98 4.72166Z" fill="#DBE5E9"/>
<path d="M42.8854 6.73218C43.0715 6.74837 43.2575 6.7647 43.4438 6.7809C43.4388 6.82323 43.4337 6.86537 43.4285 6.9077C43.2257 6.96291 43.0345 6.91327 42.8543 6.76494C42.8597 6.74929 42.87 6.73843 42.8854 6.73218Z" fill="#DBE5E9"/>
<path d="M54.4837 40.1776C54.5163 39.526 54.8529 38.9621 55.0163 38.3474C55.1398 37.8823 55.2935 37.4213 55.5907 37.0159C55.449 37.4535 55.3219 37.8967 55.1621 38.3277C54.9337 38.9426 54.7852 39.5872 54.4777 40.1727L54.4837 40.1776Z" fill="#DBE5E9"/>
<path d="M56.1049 42.5454C56.283 41.7325 56.7552 41.0172 56.8524 40.1308C56.9704 40.6084 56.5922 41.8269 56.1049 42.5454Z" fill="#DBE5E9"/>
<path d="M55.8336 43.6341C55.3656 43.4044 54.8741 43.2165 54.4747 42.8654C54.9821 43.0257 55.4963 43.1735 55.8336 43.6341Z" fill="#DBE5E9"/>
<path d="M54.6162 36.1213C55.0356 36.0031 55.3995 36.143 55.7449 36.362C55.3687 36.2817 54.9924 36.2015 54.6162 36.1213Z" fill="#DBE5E9"/>
<path d="M56.166 33.946C56.2146 34.3772 56.0717 34.7732 55.9414 35.1717C56.0011 34.7598 55.921 34.3229 56.1636 33.9443L56.166 33.946Z" fill="#DBE5E9"/>
<path d="M55.4897 38.8304C55.5037 39.1105 55.2782 39.3426 55.3303 39.6317C55.3463 39.7208 55.2898 39.7514 55.207 39.749C55.1284 39.7467 55.0415 39.7066 55.0875 39.6347C55.2493 39.3807 55.1948 39.0165 55.4965 38.8371L55.4897 38.8304Z" fill="#DBE5E9"/>
<path d="M50.7663 43.1947C50.968 42.8686 51.1698 42.5423 51.3959 42.1768C51.3411 42.5868 51.2686 42.7153 50.7663 43.1947Z" fill="#003049"/>
<path d="M57.4251 32.434C57.4577 32.879 57.2626 33.158 56.839 33.2729C56.7834 33.1109 56.9867 33.1772 57.0072 33.082C57.224 32.916 57.2762 32.644 57.4251 32.434Z" fill="#DBE5E9"/>
<path d="M57.0072 33.082C57.0261 33.2116 56.8542 33.1733 56.839 33.2729C56.6763 33.3833 56.8047 33.5559 56.7504 33.6893C56.6466 33.6694 56.6903 33.5706 56.6563 33.5135C56.6909 33.3092 56.7257 33.1051 56.7656 32.8694C56.8874 32.9075 56.7996 33.1923 57.0072 33.082Z" fill="#DBE5E9"/>
<path d="M50.9422 43.8844C50.9766 44.1623 50.7745 44.3055 50.609 44.4698C50.5813 44.1956 50.7594 44.0386 50.9422 43.8844Z" fill="#DBE5E9"/>
<path d="M56.1636 33.9443C56.105 33.6607 56.178 33.398 56.305 33.0944C56.355 33.4262 56.286 33.6902 56.166 33.946L56.1636 33.9443Z" fill="#DBE5E9"/>
<path d="M55.6636 38.1553C55.6879 38.1555 55.7122 38.1555 55.7365 38.1553C55.6541 38.3802 55.5719 38.6054 55.4897 38.8304L55.4965 38.8371C55.4256 38.5788 55.5381 38.3655 55.6636 38.1553Z" fill="#DBE5E9"/>
<path d="M54.4777 40.1727C54.4889 40.3856 54.4585 40.602 54.5045 40.8118C54.3628 40.6103 54.3334 40.4007 54.4835 40.1776L54.4777 40.1727Z" fill="#DBE5E9"/>
<path d="M5.04305 39.4257C5.41499 40.277 5.80258 41.1223 5.99526 42.046C5.64228 41.1908 5.2893 40.3356 4.93631 39.4803C4.97183 39.4621 5.00753 39.4439 5.04305 39.4257Z" fill="#DBE5E9"/>
<path d="M6.72715 47.5629C6.16676 46.9602 5.885 46.2533 6.00591 45.4025C6.19492 45.7668 6.09646 46.1826 6.26209 46.5372C6.41981 46.8749 6.51441 47.2423 6.72715 47.5629Z" fill="#DBE5E9"/>
<path d="M7.50162 46.3233C7.30782 46.1779 7.28332 45.9501 7.34497 45.7674C7.47435 45.3831 7.31552 45.116 7.10296 44.828C6.98867 44.6731 6.83666 44.513 6.81973 44.1745C7.12376 44.6331 7.36374 44.9981 7.60777 45.3604C7.63943 45.4076 7.69335 45.4733 7.64513 45.502C7.27301 45.7237 7.55775 46.0559 7.49665 46.3277L7.50162 46.3233Z" fill="#DBE5E9"/>
<path d="M11.2803 50.3628C11.5046 50.3746 11.749 50.4088 11.6106 49.9754C11.8876 50.2796 12.305 50.3343 12.3837 50.7471C12.1 50.3775 11.6419 50.5086 11.2803 50.3628Z" fill="#DBE5E9"/>
<path d="M10.365 51.4074C9.83981 51.2574 9.55896 50.8132 9.23138 50.4215C9.60921 50.75 9.98704 51.0787 10.365 51.4074Z" fill="#DBE5E9"/>
<path d="M12.884 51.075C13.2106 51.3148 13.5375 51.5548 13.8642 51.7948L13.8159 51.8872C13.5964 51.7913 13.4002 51.5721 13.1354 51.7153C13.2758 51.4139 12.9156 51.309 12.884 51.075Z" fill="#DBE5E9"/>
<path d="M5.91534 42.9183C5.71677 42.6894 5.63653 42.5543 5.66413 42.3399C5.83878 42.4417 6.00736 42.4623 6.19913 42.4424C6.0519 42.5506 5.85516 42.599 5.91534 42.9183Z" fill="#DBE5E9"/>
<path d="M6.23268 44.0296C6.29028 43.8356 6.42937 43.6519 6.29392 43.4231C6.50022 43.5309 6.52176 43.7407 6.632 43.9077C6.51532 43.9522 6.40839 43.9929 6.30165 44.0336C6.27864 44.0321 6.25568 44.0309 6.23268 44.0296Z" fill="#DBE5E9"/>
<path d="M7.28897 44.1627C7.49712 44.2753 7.61178 44.4466 7.60938 44.6912C7.50264 44.5151 7.39572 44.3388 7.28897 44.1627Z" fill="#DBE5E9"/>
<path d="M4.86844 39.3284C4.78968 39.1462 4.71091 38.964 4.61171 38.7349C4.83569 38.9243 4.83569 38.9243 4.86844 39.3284Z" fill="#DBE5E9"/>
<path d="M22.4193 6.36477C21.1526 6.72365 19.9858 7.35011 18.7371 7.75867C19.9477 7.27189 21.0602 6.5385 22.3707 6.30735C22.4318 6.28858 22.448 6.30772 22.4193 6.36477Z" fill="#DBE5E9"/>
<path d="M22.3707 6.30735C22.6256 6.18092 22.8889 6.08587 23.2855 6.06765C22.9498 6.25481 22.6919 6.33109 22.4193 6.36477C22.4079 6.34158 22.3917 6.32244 22.3707 6.30735Z" fill="#DBE5E9"/>
<path d="M25.5624 3.76515C25.2361 3.82515 24.9864 3.87116 24.7367 3.91698C24.9691 3.77196 25.2054 3.6481 25.5624 3.76515Z" fill="#DBE5E9"/>
<path d="M24.5909 3.91936C24.4148 4.04561 24.2354 4.07984 24.0011 4.03402C24.1969 3.8993 24.3725 3.84685 24.5909 3.91936Z" fill="#DBE5E9"/>
<path d="M17.8546 54.9141C17.8592 54.9364 17.8605 54.9588 17.8583 54.9813C17.5381 54.9033 17.3288 54.6918 17.2506 54.3869C17.1915 54.1566 17.0773 53.9779 16.9231 53.8119C17.2133 53.8301 17.414 54.0215 17.6505 54.1618C17.5979 54.3316 17.3437 54.1307 17.356 54.3449C17.3634 54.4719 17.4326 54.5768 17.5364 54.657C17.6444 54.7404 17.7488 54.8282 17.8546 54.9141Z" fill="#DBE5E9"/>
<path d="M12.7579 50.256C13.2046 50.6 13.6672 50.9252 14.0283 51.3719C13.5621 51.0468 13.0849 50.7366 12.7001 50.3076C12.6992 50.2678 12.7174 50.2496 12.7579 50.256Z" fill="#DBE5E9"/>
<path d="M15.0874 52.7192C14.7503 52.6725 14.5079 52.4565 14.2027 52.2712C14.3709 52.1814 14.5193 52.2119 14.6939 52.0253C14.5163 52.53 14.9899 52.4837 15.0804 52.7268L15.0874 52.7192Z" fill="#DBE5E9"/>
<path d="M16.1197 52.7226C16.4668 52.9487 16.8748 53.0754 17.145 53.4309C16.7813 53.2259 16.4175 53.0211 16.0537 52.8161C16.0757 52.7848 16.0976 52.7537 16.1197 52.7226Z" fill="#DBE5E9"/>
<path d="M12.8125 48.6837C13.1848 48.8492 13.4964 49.0884 13.7193 49.4344C13.3657 49.2461 13.0512 49.0107 12.8125 48.6837Z" fill="#DBE5E9"/>
<path d="M12.011 49.6881C12.2853 49.8442 12.5339 50.0339 12.7579 50.256C12.7343 50.2684 12.7152 50.2857 12.7001 50.3076C12.3922 50.1789 12.1789 49.9336 11.9538 49.7028L11.9776 49.6763L12.011 49.6881Z" fill="#DBE5E9"/>
<path d="M11.9538 49.7028C11.7573 49.5757 11.5607 49.4483 11.3641 49.321C11.6293 49.3684 11.8679 49.4542 12.011 49.6879L11.9777 49.6773L11.9538 49.7028Z" fill="#DBE5E9"/>
<path d="M21.3972 2.20605C21.9039 1.86318 23.2431 1.85601 23.6898 2.19224C22.9211 2.01299 22.1567 2.10851 21.3926 2.19887L21.3972 2.20605Z" fill="#DBE5E9"/>
<path d="M21.3926 2.19887C21.0244 2.43352 20.6166 2.51235 20.1776 2.46579C20.5842 2.37911 20.9907 2.29254 21.3972 2.20605L21.3926 2.19887Z" fill="#DBE5E9"/>
<path d="M17.1835 3.88897C16.9915 4.02866 16.7996 4.16816 16.6076 4.30784C16.7212 4.05921 16.9062 3.91271 17.166 3.87259L17.1835 3.88897Z" fill="#DBE5E9"/>
<path d="M19.6867 3.29238C19.7675 3.45396 19.8483 3.61536 19.9291 3.77695C19.8996 3.79462 19.8704 3.81247 19.8409 3.83032C19.7436 3.67757 19.6205 3.54046 19.6867 3.29238Z" fill="#DBE5E9"/>
<path d="M17.166 3.87259C17.2987 3.63482 17.525 3.58351 17.8689 3.52149C17.605 3.7324 17.408 3.83615 17.1835 3.88897L17.166 3.87259Z" fill="#DBE5E9"/>
<path d="M56.7475 28.1209C56.2904 28.0188 56.3163 27.6077 56.2615 27.306C56.0804 26.3098 55.9566 25.3031 55.8128 24.3001C55.7992 24.2052 55.8299 24.0852 55.7278 24.0359C55.6258 23.9865 55.5892 23.9424 55.6891 23.8713C55.7582 23.8224 55.8246 23.8662 55.8581 23.9365C55.8874 23.9978 55.9142 24.0638 55.9242 24.1306C56.0835 25.1907 56.247 26.2502 56.3924 27.3123C56.435 27.6224 56.5098 27.9014 56.7475 28.1209Z" fill="#DBE5E9"/>
<path d="M56.4962 25.1064C56.7007 25.223 56.6411 25.4282 56.6632 25.6058C56.721 26.0674 56.6724 26.5657 57.1294 26.8915C56.7497 26.9866 56.7262 26.9905 56.6713 26.6556C56.5874 26.141 56.4271 25.6319 56.5066 25.0993L56.4962 25.1064Z" fill="#DBE5E9"/>
<path d="M58.628 26.8152C58.9352 27.4662 58.9661 28.1552 58.919 28.8549C58.7283 28.188 58.8019 27.4846 58.628 26.8152Z" fill="#DBE5E9"/>
<path d="M18.3472 56.6579C17.5154 56.6119 16.0387 55.5329 15.9085 54.6397C16.1487 54.9567 16.3489 55.23 16.5589 55.4953C16.7768 55.7707 17.0645 55.9683 17.361 56.1443C17.6639 56.3241 17.9858 56.4715 18.3472 56.6579Z" fill="#DBE5E9"/>
<path d="M20.7714 57.6483C21.5164 57.7223 22.2251 58.0164 22.983 58.0614C22.1918 58.232 21.5006 57.8515 20.7714 57.6483Z" fill="#DBE5E9"/>
<path d="M31.0767 59.0269C30.054 59.0818 29.3171 58.8112 28.8526 58.1802C29.5215 58.6532 30.2726 58.8825 31.0754 58.9577C31.1017 58.9727 31.1107 58.9879 31.1022 59.0034C31.0938 59.0192 31.0853 59.0269 31.0767 59.0269Z" fill="#DBE5E9"/>
<path d="M36.7762 58.0502C36.1697 58.565 35.3989 58.5219 34.6898 58.689C35.3656 58.4089 36.1117 58.3675 36.7762 58.0502Z" fill="#DBE5E9"/>
<path d="M31.0767 59.0269C31.0713 59.0039 31.0708 58.9809 31.0754 58.9577C31.5763 58.9502 32.0774 58.9311 32.5784 58.9395C32.8587 58.9443 33.0173 58.8343 33.0442 58.4605C33.1762 58.9622 33.0199 59.0746 32.6229 59.0444C32.11 59.0052 31.5923 59.0299 31.0767 59.0269Z" fill="#DBE5E9"/>
<path d="M11.0097 46.0402C11.2431 46.298 11.4762 46.5558 11.7094 46.8139C11.4135 46.6144 11.1141 46.4198 11.0097 46.0402Z" fill="#DBE5E9"/>
<path d="M9.6457 44.539C9.97384 44.6526 10.1268 44.9198 10.2469 45.2164C10.0465 44.9906 9.84612 44.7648 9.6457 44.539Z" fill="#DBE5E9"/>
<path d="M20.5492 53.0546C19.9561 52.8001 19.3631 52.5456 18.7699 52.291C18.7832 52.2601 18.7966 52.229 18.8099 52.1979C19.4091 52.4099 19.9971 52.6492 20.5477 52.9788C20.5775 52.9952 20.5877 53.0117 20.5783 53.0288C20.5687 53.046 20.559 53.0546 20.5492 53.0546Z" fill="#DBE5E9"/>
<path d="M21.8511 53.5409C22.3184 53.5089 22.7305 53.6804 23.125 53.9167C22.7005 53.7914 22.2757 53.6663 21.8511 53.5409Z" fill="#DBE5E9"/>
<path d="M20.5492 53.0546C20.5488 53.0294 20.5485 53.0042 20.5477 52.9788C20.9142 53.0036 21.1972 53.2675 21.5434 53.3577C21.1679 53.4164 20.8702 53.1928 20.5492 53.0546Z" fill="#DBE5E9"/>
<path d="M5.8917 36.4525C5.52473 35.5187 5.42185 34.528 5.26027 33.55C5.57737 34.4947 5.64012 35.4938 5.8917 36.4525Z" fill="#DBE5E9"/>
<path d="M6.44617 38.3575C6.2625 38.0941 6.25403 37.8473 6.21097 37.5244C6.39611 37.8282 6.39611 37.8282 6.44617 38.3575Z" fill="#DBE5E9"/>
<path d="M6.10495 22.9292C5.77534 24.0828 5.59554 25.2724 5.28194 26.43C5.44113 25.2293 5.55873 24.02 6.05214 22.8952L6.09262 22.8904L6.10495 22.9292Z" fill="#DBE5E9"/>
<path d="M6.05214 22.8952C6.14949 22.5278 6.24701 22.1606 6.36921 21.7C6.46031 22.2162 6.27977 22.5721 6.10475 22.9293C6.07935 22.9303 6.06171 22.9189 6.05214 22.8952Z" fill="#DBE5E9"/>
<path d="M30.3581 5.17527C31.9859 5.13828 33.5845 5.30005 35.137 5.78867C33.5668 5.41268 31.9535 5.35453 30.3581 5.17527Z" fill="#DBE5E9"/>
<path d="M30.2478 54.831C31.8899 54.6046 33.5529 54.5375 35.1822 54.2128C33.5781 54.7294 31.9185 54.8227 30.2478 54.831Z" fill="#DBE5E9"/>
<path d="M54.5443 32.4865C54.6049 30.819 54.5839 29.1554 54.551 27.4917C54.7727 29.1578 54.7747 30.8241 54.5443 32.4865Z" fill="#DBE5E9"/>
<path d="M2.21231 38.9357C2.40923 39.3781 2.624 39.8144 2.8511 40.2455C2.45101 39.9006 2.28684 39.4405 2.21231 38.9357Z" fill="#DBE5E9"/>
<path d="M1.76721 36.9795C2.06572 36.8433 2.35171 36.6619 2.70396 36.7204C2.41741 36.8993 2.11118 37.0073 1.76721 36.9795Z" fill="#DBE5E9"/>
<path d="M58.9037 30.8901C58.9584 31.404 58.9405 31.9058 58.8121 32.3991C58.695 31.8839 58.8756 31.3889 58.9037 30.8901Z" fill="#DBE5E9"/>
<path d="M58.6647 32.8944C58.67 33.157 58.5412 33.3602 58.3772 33.5488C58.416 33.3076 58.497 33.083 58.6647 32.8944Z" fill="#DBE5E9"/>
<path d="M2.52976 31.4881C2.95029 31.3469 2.68693 30.9674 2.79809 30.7184C2.88164 31.7021 2.96495 32.6858 3.0485 33.6695C2.98998 33.3993 2.75862 33.4879 2.602 33.4403C3.06154 33.1042 2.73803 32.658 2.76766 32.2616C2.66699 32.1044 2.59687 31.9426 2.69515 31.7568C2.7557 31.5959 2.72797 31.4895 2.52976 31.4881Z" fill="#DBE5E9"/>
<path d="M1.44361 32.8917C0.941926 34.0478 1.4195 35.2074 1.42355 36.3638C1.26804 35.2054 0.762306 34.0478 1.44361 32.8917Z" fill="#DBE5E9"/>
<path d="M2.69515 31.7568C2.80078 31.9134 2.77519 32.0887 2.76783 32.2615C2.43343 32.1378 2.45663 31.9629 2.69515 31.7568Z" fill="#DBE5E9"/>
<path d="M3.34959 31.5195C3.37977 31.9752 3.40996 32.4309 3.43995 32.8866C3.23622 32.4458 3.26457 31.9849 3.34959 31.5195Z" fill="#DBE5E9"/>
<path d="M3.11569 30.4822C3.26568 30.7056 3.37059 30.9281 3.24654 31.1947C3.20311 30.9572 3.15931 30.7197 3.11569 30.4822Z" fill="#DBE5E9"/>
<path d="M53.6173 46.3008C54.1059 45.9069 54.3671 45.3178 54.8227 44.8955L54.8172 44.8905C54.5936 45.5055 54.1806 45.9699 53.6585 46.3473C53.6202 46.3536 53.6075 46.337 53.6173 46.3008Z" fill="#DBE5E9"/>
<path d="M53.6585 46.3473C53.3523 46.6366 52.993 46.7971 52.5691 46.8033C52.9552 46.7117 53.2483 46.4257 53.6173 46.3008C53.6355 46.3124 53.6493 46.3278 53.6585 46.3473Z" fill="#DBE5E9"/>
<path d="M54.8227 44.8955C54.8303 44.6032 55.0566 44.4429 55.2204 44.245C55.1678 44.5104 55.0316 44.7247 54.8172 44.8905L54.8227 44.8955Z" fill="#DBE5E9"/>
<path d="M50.2354 47.2459C50.6438 46.4192 51.1924 45.7087 51.7801 45.0279C51.8095 45.0504 51.8388 45.0728 51.8682 45.0953C51.324 45.8121 50.7798 46.5289 50.2354 47.2459Z" fill="#DBE5E9"/>
<path d="M49.699 47.8937C48.9295 48.6221 48.1674 49.315 47.4414 50.0441C47.1425 50.3441 46.6798 50.5521 46.7187 51.1314C46.4483 50.8898 46.638 50.7116 46.7544 50.5782C47.0289 50.2631 47.3326 49.9727 47.63 49.6783C48.2337 49.0803 48.8408 48.4857 49.4481 47.8913C49.5019 47.8386 49.5712 47.8327 49.699 47.8937Z" fill="#DBE5E9"/>
<path d="M30.0091 56.6383C29.27 56.7336 28.5506 56.6079 27.8288 56.5168C28.5568 56.5855 29.2959 56.4009 30.0091 56.6383Z" fill="#DBE5E9"/>
<path d="M3.51989 25.6228C3.62866 26.7912 3.39622 27.9398 3.29169 29.0967C3.18274 27.9593 3.45585 26.837 3.44609 25.7039C3.41499 25.6263 3.45714 25.615 3.51989 25.6228Z" fill="#DBE5E9"/>
<path d="M3.51989 25.6228L3.44609 25.7039C3.30623 25.6066 3.28248 25.4432 3.14445 25.2291C3.4056 25.3278 3.52081 25.4207 3.51989 25.6228Z" fill="#DBE5E9"/>
<path d="M26.25 56.4683C25.5554 56.3202 24.8645 56.1507 24.1652 56.0299C23.4642 55.909 22.7764 55.6206 22.0425 55.8128C22.2315 55.572 22.2777 55.5231 22.6456 55.589C23.8621 55.8069 25.0793 56.0266 26.271 56.359C26.264 56.3954 26.257 56.4319 26.25 56.4683Z" fill="#DBE5E9"/>
<path d="M30.9357 44.9275C30.9263 44.9266 30.9179 44.9258 30.9087 44.9258C30.912 44.9198 30.9164 44.9148 30.9205 44.9098C30.9254 44.9148 30.9308 44.9216 30.9357 44.9275Z" fill="#DBE5E9"/>
<path d="M30.9357 44.9275C30.9263 44.9266 30.9179 44.9258 30.9087 44.9258C30.912 44.9198 30.9164 44.9148 30.9205 44.9098C30.9254 44.9148 30.9308 44.9216 30.9357 44.9275Z" fill="#DBE5E9"/>
<path d="M30.9357 44.9275C30.9263 44.9266 30.9179 44.9258 30.9087 44.9258C30.912 44.9198 30.9164 44.9148 30.9205 44.9098C30.9254 44.9148 30.9308 44.9216 30.9357 44.9275Z" fill="#DBE5E9"/>
<path d="M30.9357 44.9275C30.9263 44.9266 30.9179 44.9258 30.9087 44.9258C30.912 44.9198 30.9164 44.9148 30.9205 44.9098C30.9254 44.9148 30.9308 44.9216 30.9357 44.9275Z" fill="#DBE5E9"/>
<path d="M18.4499 45.2989C18.2953 45.4257 18.0773 45.4892 17.7957 45.4892H17.0787L17.3326 44.2225H17.9991C18.2146 44.2225 18.3822 44.265 18.502 44.3502C18.622 44.4354 18.6818 44.5664 18.6818 44.7437C18.6818 44.9871 18.6045 45.1721 18.4499 45.2989ZM19.1642 43.8316C18.9156 43.6334 18.5637 43.5343 18.1086 43.5343H16.6228L15.8929 47.1833H16.7428L16.9456 46.1615H17.6637L18.2389 47.1833H19.1303L18.4934 46.0601C18.5672 46.0369 18.6378 46.01 18.7054 45.9791C18.9713 45.8575 19.1762 45.6846 19.3204 45.4605C19.4645 45.2363 19.5367 44.9713 19.5367 44.6656C19.5367 44.3077 19.4125 44.0296 19.1642 43.8316Z" fill="#DBE5E9"/>
<path d="M19.7244 47.1833H20.5741L21.304 43.5344H20.4543L19.7244 47.1833Z" fill="#DBE5E9"/>
<path d="M22.7843 44.5978C22.9059 44.4691 23.0528 44.3692 23.2249 44.2982C23.3967 44.2268 23.5905 44.1912 23.8059 44.1912C24.0111 44.1912 24.1909 44.2223 24.3455 44.2851C24.5001 44.3475 24.6383 44.4518 24.7599 44.5978L25.3647 44.1077C25.2082 43.9027 25.0023 43.7455 24.7468 43.636C24.4914 43.5265 24.19 43.4718 23.8425 43.4718C23.4983 43.4718 23.1857 43.5274 22.9041 43.6388C22.6227 43.7499 22.381 43.9038 22.1795 44.1C21.978 44.2963 21.8225 44.5282 21.713 44.7958C21.6035 45.0636 21.5488 45.352 21.5488 45.6612C21.5488 45.974 21.6226 46.2493 21.7704 46.4875C21.918 46.7254 22.1265 46.9115 22.396 47.0451C22.6652 47.1789 22.9841 47.2459 23.3524 47.2459C23.6165 47.2459 23.8694 47.2076 24.1108 47.1312C24.3525 47.0549 24.5652 46.9454 24.7494 46.8027L25.0518 45.3015H24.2803L24.0643 46.3945C24.0304 46.4104 23.9965 46.4253 23.9623 46.438C23.8026 46.4971 23.6356 46.5265 23.4619 46.5265C23.2326 46.5265 23.0388 46.4882 22.8807 46.4118C22.7226 46.3355 22.6035 46.2285 22.5235 46.0913C22.4436 45.954 22.4039 45.7933 22.4039 45.6091C22.4039 45.4076 22.4366 45.2208 22.5027 45.0487C22.5688 44.8768 22.6626 44.7264 22.7843 44.5978Z" fill="#DBE5E9"/>
<path d="M28.7997 44.212L28.9405 43.5344H26.1829L25.453 47.1833H26.3029L26.5662 45.854H28.2524L28.3932 45.1764H26.7006L26.8918 44.212H28.7997Z" fill="#DBE5E9"/>
<path d="M31.951 45.6482C31.8901 45.8203 31.8023 45.9723 31.6876 46.1042C31.5728 46.2364 31.4331 46.3398 31.268 46.4145C31.1029 46.489 30.9178 46.5264 30.7128 46.5264C30.5008 46.5264 30.3212 46.4883 30.1734 46.4118C30.0256 46.3354 29.9126 46.2285 29.8346 46.0913C29.7563 45.9541 29.7171 45.795 29.7171 45.6143C29.7171 45.4233 29.7475 45.2416 29.8084 45.0696C29.8692 44.8975 29.9577 44.7455 30.0744 44.6133C30.1907 44.4814 30.3305 44.378 30.494 44.3032C30.6572 44.2285 30.8414 44.1912 31.0464 44.1912C31.262 44.1912 31.4434 44.2294 31.5912 44.3058C31.739 44.3824 31.8509 44.4893 31.9274 44.6264C32.0038 44.7637 32.0421 44.9227 32.0421 45.1034C32.0421 45.2946 32.0115 45.4761 31.951 45.6482ZM32.0706 43.6725C31.8049 43.5387 31.4876 43.4718 31.1193 43.4718C30.7822 43.4718 30.4756 43.5275 30.1993 43.6387C29.9231 43.7498 29.6849 43.9037 29.4853 44.0999C29.2854 44.2962 29.1317 44.5274 29.0239 44.7931C28.9162 45.0591 28.8623 45.3484 28.8623 45.6612C28.8623 45.9739 28.9335 46.2494 29.076 46.4874C29.2184 46.7255 29.4227 46.9114 29.6886 47.0452C29.9544 47.179 30.2715 47.246 30.6399 47.246C30.9769 47.246 31.2837 47.1902 31.5599 47.0791C31.8361 46.9677 32.0743 46.8141 32.2742 46.6177C32.4738 46.4213 32.6277 46.1904 32.7355 45.9244C32.8432 45.6587 32.8971 45.3692 32.8971 45.0565C32.8971 44.7436 32.8257 44.4683 32.6833 44.2302C32.5406 43.9922 32.3367 43.8063 32.0706 43.6725Z" fill="#DBE5E9"/>
<path d="M35.704 45.2989C35.5494 45.4257 35.3315 45.4892 35.0498 45.4892H34.3327L34.5867 44.2225H35.2531C35.4686 44.2225 35.6363 44.265 35.7561 44.3502C35.8761 44.4354 35.9361 44.5664 35.9361 44.7437C35.9361 44.9871 35.8588 45.1721 35.704 45.2989ZM36.4183 43.8316C36.1696 43.6334 35.8177 43.5343 35.3628 43.5343H33.8769L33.147 47.1833H33.9969L34.1997 46.1615H34.9178L35.4931 47.1833H36.3842L35.7474 46.0601C35.8212 46.0369 35.8919 46.01 35.9595 45.9791C36.2254 45.8575 36.4302 45.6846 36.5745 45.4605C36.7188 45.2363 36.7908 44.9713 36.7908 44.6656C36.7908 44.3077 36.6665 44.0296 36.4183 43.8316Z" fill="#DBE5E9"/>
<path d="M38.3156 44.6003C38.4354 44.47 38.5789 44.3693 38.7457 44.2981C38.9124 44.2269 39.0983 44.1912 39.3033 44.1912C39.5048 44.1912 39.6787 44.2278 39.8247 44.3007C39.9706 44.3736 40.0906 44.4796 40.1843 44.6187L40.7944 44.1181C40.6657 43.9098 40.4764 43.7499 40.2261 43.6387C39.9758 43.5274 39.6874 43.4718 39.3607 43.4718C39.0201 43.4718 38.7116 43.5274 38.4354 43.6387C38.1591 43.7499 37.921 43.9037 37.7213 44.0999C37.5216 44.2963 37.367 44.5282 37.2574 44.7958C37.1479 45.0635 37.093 45.3519 37.093 45.6613C37.093 45.974 37.1663 46.2493 37.3122 46.4874C37.4581 46.7254 37.6657 46.9115 37.9352 47.0452C38.2044 47.179 38.525 47.2459 38.8968 47.2459C39.2094 47.2459 39.4971 47.1963 39.7595 47.0973C40.0218 46.9983 40.2487 46.8377 40.4397 46.6152L39.9393 46.1043C39.8072 46.2502 39.6596 46.3571 39.4962 46.4249C39.3327 46.4926 39.1574 46.5264 38.9698 46.5264C38.7543 46.5264 38.5701 46.4884 38.4173 46.4118C38.2644 46.3354 38.1479 46.2285 38.0679 46.0914C37.9882 45.9539 37.948 45.7932 37.948 45.609C37.948 45.4145 37.9795 45.2303 38.0419 45.0565C38.1047 44.8828 38.1958 44.7306 38.3156 44.6003Z" fill="#DBE5E9"/>
<path d="M44.146 44.212L44.2868 43.5344H41.5292L40.7993 47.1833H43.6248L43.7656 46.5057H41.7741L41.9431 45.6613H43.6405L43.7708 45.0043H42.0745L42.2329 44.212H44.146Z" fill="#DBE5E9"/>
<path d="M49.6813 41.6189C49.6225 41.7203 49.5634 41.8217 49.5014 41.9216H10.6801C10.6181 41.8217 10.5575 41.7203 10.4985 41.6189H49.6813Z" fill="#DBE5E9"/>
<path d="M42.8065 48.9568C42.6553 49.0597 42.5023 49.1611 42.3496 49.2594H17.8319C17.6775 49.1611 17.5247 49.0597 17.3735 48.9568H42.8065Z" fill="#DBE5E9"/>
</svg>
